<svg width="160" height="134" viewBox="0 0 160 134" fill="none" xmlns="http://www.w3.org/2000/svg">
<rect width="160" height="134" fill="black" fill-opacity="0"/>
<rect width="160" height="134" fill="black" fill-opacity="0"/>
<path fill-rule="evenodd" clip-rule="evenodd" d="M24.1661 108.684V98.4629C24.1661 97.1199 25.0072 96.0411 26.4002 96.0411H26.7856C28.178 96.0411 29.0153 97.1211 29.0153 98.4629V119.981C29.0153 125.229 26.4183 129.404 21.8927 132.064C19.8195 133.29 17.4531 133.934 15.0435 133.928H14.0816C8.82382 133.928 4.64672 131.334 1.97776 126.82C0.747783 124.75 0.102471 122.387 0.110424 119.981V119.022C0.110424 113.773 2.70867 109.6 7.23057 106.935C9.30331 105.707 11.671 105.062 14.0816 105.071H15.0435C18.6017 105.071 21.6204 106.448 24.1661 108.684V108.684ZM4.95898 119.501C4.95898 123.291 6.79941 126.141 10.1267 127.959C11.4721 128.694 12.9327 129.088 14.4677 129.088C18.1949 129.088 20.9596 127.333 22.8664 124.18C23.7531 122.714 24.1661 121.109 24.1661 119.403C24.1661 116.117 22.6079 113.553 19.9552 111.648C18.347 110.494 16.5366 109.915 14.5622 109.915C10.4997 109.915 7.57601 111.963 5.82131 115.603C5.22932 116.833 4.95898 118.14 4.95898 119.501V119.501ZM45.8376 105.071H46.5097C52.1279 105.071 56.4008 107.791 59.1085 112.687C60.1911 114.645 60.7706 116.783 60.7706 119.022V119.981C60.7706 125.229 58.1786 129.409 53.6461 132.064C51.5478 133.293 49.2299 133.928 46.7982 133.928H45.8376C40.5798 133.928 36.4014 131.334 33.7337 126.82C32.5031 124.751 31.8572 122.387 31.8645 119.981V119.022C31.8645 113.773 34.4734 109.613 38.984 106.937C41.081 105.693 43.4008 105.071 45.8376 105.071ZM36.7137 119.501C36.7137 123.18 38.5222 125.887 41.6355 127.79C43.0973 128.684 44.7074 129.088 46.4152 129.088C50.0572 129.088 52.7493 127.245 54.6229 124.177C55.5166 122.714 55.9208 121.106 55.9208 119.403C55.9208 115.981 54.27 113.368 51.4477 111.474C49.9014 110.435 48.1799 109.915 46.3176 109.915C42.255 109.915 39.3313 111.963 37.5773 115.603C36.984 116.833 36.7137 118.14 36.7137 119.501V119.501ZM80.9289 110.301C80.1968 109.959 78.8263 109.845 78.0353 109.815C73.984 109.663 71.0528 111.94 69.3332 115.508C68.7393 116.739 68.4684 118.041 68.4684 119.403C68.4684 123.549 70.6492 126.452 74.3564 128.221C75.7105 128.867 77.459 128.99 78.939 128.99C80.2406 128.99 82.0804 128.194 83.2356 127.646L83.4358 127.551H84.3326L84.4314 127.571C85.5341 127.8 86.3664 128.498 86.3664 129.682V130.162C86.3664 133.109 80.9709 133.783 78.912 133.927C71.6467 134.429 66.2131 130.446 64.1417 123.528C63.7819 122.327 63.6198 121.134 63.6198 119.882V118.924C63.6198 113.675 66.2293 109.517 70.7393 106.843C72.8363 105.6 75.1555 104.975 77.5916 104.975H78.5529C81.1373 104.975 83.5178 105.708 85.6517 107.163L85.8269 107.284L85.9377 107.466C86.168 107.847 86.3664 108.288 86.3664 108.742V109.221C86.3664 110.457 85.4402 111.121 84.3226 111.336L84.2299 111.353H83.9433C83.2199 111.353 81.5748 110.605 80.9289 110.301V110.301ZM96.6573 113.579C98.5409 111.696 100.431 109.817 102.343 107.966C102.875 107.449 104.892 105.263 105.686 105.263H106.555L106.654 105.283C107.76 105.512 108.589 106.211 108.589 107.398V107.877C108.589 108.686 107.639 109.627 107.115 110.181C106.001 111.36 104.828 112.5 103.688 113.654L97.8294 119.591C100.352 122.115 102.872 124.641 105.374 127.184C106.068 127.886 106.756 128.593 107.44 129.305C107.681 129.558 108.036 129.873 108.238 130.223C108.455 130.552 108.589 130.922 108.589 131.318V131.818L108.56 131.933C108.288 133.038 107.586 133.928 106.36 133.928H105.974C105.172 133.928 104.266 133.023 103.716 132.505C102.584 131.439 101.49 130.318 100.38 129.23L96.6573 125.581V131.412C96.6573 132.755 95.8151 133.835 94.4239 133.835H94.0422C92.6492 133.835 91.8082 132.755 91.8082 131.412V98.5566C91.8082 97.2136 92.6498 96.1391 94.0422 96.1391H94.4239C95.8151 96.1391 96.6573 97.2136 96.6573 98.5566V113.579V113.579ZM157.094 105.263H157.575C159.03 105.263 160 106.241 160 107.684C160 109.688 158.081 110.201 156.421 110.201C154.243 110.201 152.164 111.517 150.662 112.994C148.791 114.836 147.971 117.195 147.971 119.789V131.507C147.971 132.85 147.131 133.928 145.737 133.928H145.354C143.961 133.928 143.121 132.851 143.121 131.507V119.116C143.121 114.358 145.441 110.474 149.31 107.749C151.62 106.122 154.266 105.263 157.094 105.263V105.263ZM122.629 128.486C124.394 129.101 126.406 129.013 128.216 128.698C129.142 128.305 131.51 127.274 132.381 127.425L132.517 127.448L132.642 127.509C133.174 127.767 133.682 128.131 133.953 128.671C134.588 129.937 134.283 131.21 133.037 131.929L132.622 132.169C128.022 134.819 123.13 134.451 118.545 131.976C116.353 130.793 114.675 129.037 113.438 126.896L113.149 126.396C110.196 121.291 110.595 115.921 113.925 111.067C115.075 109.389 116.577 108.093 118.334 107.079L118.998 106.696C123.33 104.2 127.973 104.371 132.421 106.562C134.814 107.74 136.752 109.496 138.087 111.805L138.328 112.221C139.298 113.899 138.041 115.361 136.744 116.361C135.238 117.52 133.718 118.916 132.275 120.159C129.057 122.932 125.844 125.711 122.629 128.486V128.486ZM118.465 125.566C122.063 122.486 125.662 119.403 129.251 116.311C130.478 115.255 131.823 114.159 133.039 113.049C132.063 111.821 130.432 110.936 129.047 110.408C126.249 109.344 123.492 109.702 120.926 111.18C117.569 113.115 116.139 116.196 116.264 120.031C116.314 121.542 116.721 122.997 117.524 124.282C117.807 124.735 118.123 125.16 118.465 125.566ZM92.2957 28.5678H106.605V43.1696H113.839C117.181 43.1696 120.617 42.5755 123.781 41.5055C125.336 40.9789 127.081 40.2467 128.615 39.3253C126.595 36.6929 125.563 33.369 125.261 30.0926C124.848 25.6355 125.749 19.8348 128.77 16.3466L130.274 14.61L132.067 16.0486C136.579 19.6674 140.374 24.7247 141.043 30.4899C146.477 28.8945 152.857 29.2718 157.646 32.031L159.611 33.1629L158.577 35.1781C154.527 43.069 146.058 45.514 137.779 45.0811C125.39 75.8833 98.4183 90.4658 65.7156 90.4658C48.8194 90.4658 33.3188 84.1609 24.4915 69.1974L24.347 68.9538L23.061 66.3414C20.0773 59.7548 19.086 52.5391 19.7581 45.3291L19.9602 43.1696H32.1968V28.5678H46.5053V14.2839H75.1242V0H92.2957V28.5678Z" fill="#364548"/>
<path fill-rule="evenodd" clip-rule="evenodd" d="M138.655 33.9704C139.614 26.5267 134.034 20.6804 130.574 17.9043C126.586 22.5069 125.966 34.5694 132.223 39.6481C128.731 42.744 121.374 45.55 113.84 45.55H22.1345C21.4023 53.4004 22.7828 60.6297 25.9361 66.8172L26.9793 68.7224C27.6398 69.8407 28.3616 70.9218 29.1414 71.9608C32.9117 72.2025 36.3879 72.2856 39.5682 72.2156H39.5694C45.8191 72.0782 50.9186 71.3411 54.7834 70.0043C55.0567 69.9194 55.3522 69.944 55.6076 70.0728C55.863 70.2016 56.0582 70.4245 56.152 70.6944C56.2457 70.9643 56.2306 71.26 56.1098 71.5189C55.9891 71.7779 55.7722 71.9798 55.505 72.082C54.9906 72.2606 54.4549 72.4268 53.9017 72.5848H53.8998C50.8566 73.4525 47.5932 74.036 43.3829 74.2952C43.6332 74.2996 43.1226 74.3327 43.1214 74.3327C42.978 74.342 42.7978 74.3627 42.6539 74.3702C40.9968 74.4632 39.2083 74.4826 37.3798 74.4826C35.3798 74.4826 33.4105 74.4451 31.2083 74.3327L31.152 74.3702C38.7928 82.9432 50.7403 88.085 65.7165 88.085C97.4111 88.085 124.295 74.0597 136.2 42.5728C144.645 43.438 152.762 41.2879 156.454 34.0928C150.573 30.7052 143.01 31.7853 138.655 33.9704" fill="#22A0C8"/>
<path fill-rule="evenodd" clip-rule="evenodd" d="M138.655 33.9704C139.614 26.5267 134.034 20.6804 130.574 17.9043C126.585 22.5069 125.966 34.5694 132.222 39.6481C128.731 42.744 121.373 45.55 113.839 45.55H27.5647C27.1905 57.5726 31.6599 66.6985 39.5672 72.2156H39.5691C45.8188 72.0782 50.9183 71.3411 54.7831 70.0043C55.0564 69.9194 55.3519 69.944 55.6073 70.0728C55.8627 70.2016 56.0579 70.4245 56.1517 70.6944C56.2454 70.9643 56.2303 71.26 56.1095 71.5189C55.9888 71.7779 55.7719 71.9798 55.5047 72.082C54.9903 72.2606 54.4546 72.4268 53.9014 72.5848H53.8995C50.8563 73.4525 47.3125 74.1109 43.1023 74.3702C43.101 74.3702 43.0003 74.2733 42.999 74.2733C53.7856 79.7967 69.4258 79.7767 87.3576 72.9009C107.464 65.1899 126.174 50.5 139.229 33.698C139.032 33.7867 138.841 33.8773 138.655 33.9704" fill="#37B1D9"/>
<path fill-rule="evenodd" clip-rule="evenodd" d="M22.3057 55.0879C22.8751 59.2932 24.1079 63.2306 25.9352 66.8168L26.9784 68.7221C27.6388 69.8405 28.3606 70.9216 29.1405 71.9604C32.9114 72.2022 36.3876 72.2853 39.5685 72.2153C45.8182 72.0779 50.9177 71.3408 54.7825 70.0039C55.0557 69.9191 55.3513 69.9437 55.6067 70.0725C55.8621 70.2013 56.0573 70.4242 56.151 70.694C56.2448 70.9639 56.2297 71.2596 56.1089 71.5186C55.9882 71.7775 55.7712 71.9794 55.504 72.0816C54.9896 72.2603 54.454 72.4264 53.9008 72.5845H53.8989C50.8557 73.4522 47.3307 74.0731 43.1204 74.333C42.9759 74.3417 42.7237 74.3436 42.5779 74.3517C40.9221 74.4442 39.1517 74.501 37.3226 74.501C35.3232 74.501 33.2781 74.4629 31.0773 74.3511C38.7181 82.9242 50.7393 88.0846 65.7156 88.0846C92.8495 88.0846 116.456 77.8037 130.158 55.0879H22.3057Z" fill="#1B81A5"/>
<path fill-rule="evenodd" clip-rule="evenodd" d="M28.3906 55.0879C30.0127 62.4716 33.9106 68.268 39.5696 72.2153C45.8193 72.0779 50.9188 71.3408 54.7836 70.0039C55.0568 69.9191 55.3524 69.9437 55.6078 70.0725C55.8632 70.2013 56.0584 70.4242 56.1521 70.694C56.2459 70.9639 56.2308 71.2596 56.11 71.5186C55.9893 71.7775 55.7723 71.9794 55.5051 72.0816C54.9907 72.2603 54.4551 72.4264 53.9019 72.5845H53.9C50.8568 73.4522 47.2573 74.0731 43.0464 74.333C53.8324 79.8551 69.4275 79.7758 87.3581 72.9006C98.2054 68.7402 108.645 62.5472 118.011 55.0879H28.3906Z" fill="#1D91B4"/>
<path fill-rule="evenodd" clip-rule="evenodd" d="M34.5801 30.9484H46.9818V43.3283H34.5801V30.9484ZM35.6132 31.9804H36.592V42.2969H35.6132V31.9804ZM37.453 31.9804H38.4712V42.2969H37.4537V31.9804H37.453ZM39.3316 31.9804H40.3498V42.2969H39.3316V31.9804ZM41.2115 31.9804H42.229V42.2969H41.2115V31.9804ZM43.0907 31.9804H44.1082V42.2969H43.0907V31.9804ZM44.9693 31.9804H45.9487V42.2969H44.9693V31.9804ZM48.8892 16.6646H61.2916V29.0438H48.8886V16.6646H48.8892ZM49.923 17.6965H50.9011V28.0124H49.923V17.6965ZM51.7628 17.6965H52.7803V28.0124H51.7634V17.6965H51.7628ZM53.6414 17.6965H54.6589V28.0124H53.6414V17.6965ZM55.5206 17.6965H56.5382V28.0124H55.5206V17.6965ZM57.3999 17.6965H58.418V28.0124H57.3999V17.6965ZM59.2785 17.6965H60.2584V28.0124H59.2785V17.6965Z" fill="#23A3C2"/>
<path fill-rule="evenodd" clip-rule="evenodd" d="M48.8893 30.9482H61.2917V43.3281H48.8887V30.9482H48.8893ZM49.9231 31.9802H50.9012V42.2968H49.9231V31.9802ZM51.7629 31.9802H52.7804V42.2968H51.7635V31.9802H51.7629ZM53.6415 31.9802H54.659V42.2968H53.6415V31.9802ZM55.5207 31.9802H56.5382V42.2968H55.5207V31.9802ZM57.3999 31.9802H58.4181V42.2968H57.3999V31.9802ZM59.2785 31.9802H60.2585V42.2968H59.2785V31.9802Z" fill="#34BBDE"/>
<path fill-rule="evenodd" clip-rule="evenodd" d="M63.1992 30.9482H75.601V43.3281H63.1992V30.9482ZM64.2324 31.9802H65.2105V42.2968H64.2324V31.9802ZM66.0722 31.9802H67.0897V42.2968H66.0722V31.9802ZM67.9514 31.9802H68.9689V42.2968H67.9514V31.9802ZM69.8306 31.9802H70.8482V42.2968H69.8306V31.9802ZM71.7092 31.9802H72.728V42.2968H71.7092V31.9802ZM73.5885 31.9802H74.5672V42.2968H73.5885V31.9802V31.9802Z" fill="#23A3C2"/>
<path fill-rule="evenodd" clip-rule="evenodd" d="M63.1992 16.6646H75.601V29.0438H63.1992V16.6646ZM64.2324 17.6965H65.2105V28.0124H64.2324V17.6965ZM66.0722 17.6965H67.0897V28.0124H66.0722V17.6965ZM67.9514 17.6965H68.9689V28.0124H67.9514V17.6965ZM69.8306 17.6965H70.8482V28.0124H69.8306V17.6965ZM71.7092 17.6965H72.728V28.0124H71.7092V17.6965ZM73.5885 17.6965H74.5672V28.0124H73.5885V17.6965V17.6965ZM77.5084 30.9484H89.9101V43.3283H77.5084V30.9484ZM78.5421 31.9804H79.5202V42.2969H78.5421V31.9804ZM80.382 31.9804H81.3995V42.2969H80.382V31.9804ZM82.2605 31.9804H83.2781V42.2969H82.2605V31.9804ZM84.1398 31.9804H85.1579V42.2969H84.1398V31.9804ZM86.019 31.9804H87.0371V42.2969H86.019V31.9804ZM87.8982 31.9804H88.8769V42.2969H87.8982V31.9804Z" fill="#34BBDE"/>
<path fill-rule="evenodd" clip-rule="evenodd" d="M77.5088 16.6646H89.9105V29.0438H77.5088V16.6646ZM78.5426 17.6965H79.5207V28.0124H78.5426V17.6965ZM80.3824 17.6965H81.3999V28.0124H80.3824V17.6965ZM82.261 17.6965H83.2785V28.0124H82.261V17.6965ZM84.1402 17.6965H85.1583V28.0124H84.1402V17.6965ZM86.0194 17.6965H87.0376V28.0124H86.0194V17.6965ZM87.8987 17.6965H88.8774V28.0124H87.8987V17.6965Z" fill="#23A3C2"/>
<path fill-rule="evenodd" clip-rule="evenodd" d="M77.5088 2.37988H89.9105V14.761H77.5088V2.37988ZM78.5426 3.41123H79.5207V13.7284H78.5426V3.4106V3.41123ZM80.3824 3.41123H81.3999V13.7284H80.3824V3.4106V3.41123ZM82.261 3.41123H83.2785V13.7284H82.261V3.4106V3.41123ZM84.1402 3.41123H85.1583V13.7284H84.1402V3.4106V3.41123ZM86.0194 3.41123H87.0376V13.7284H86.0194V3.4106V3.41123ZM87.8987 3.41123H88.8774V13.7284H87.8987V3.4106V3.41123Z" fill="#34BBDE"/>
<path fill-rule="evenodd" clip-rule="evenodd" d="M91.8184 30.9482H104.22V43.3281H91.8184V30.9482ZM92.8509 31.9802H93.8302V42.2968H92.8515V31.9802H92.8509ZM94.6907 31.9802H95.7088V42.2968H94.6913V31.9802H94.6907ZM96.5705 31.9802H97.5887V42.2968H96.5705V31.9802ZM98.4491 31.9802H99.4673V42.2968H98.4491V31.9802ZM100.329 31.9802H101.347V42.2968H100.329V31.9802ZM102.208 31.9802H103.186V42.2968H102.208V31.9802Z" fill="#23A3C2"/>
<path fill-rule="evenodd" clip-rule="evenodd" d="M60.5158 63.3997C60.969 63.3937 61.4189 63.4776 61.8393 63.6466C62.2598 63.8155 62.6424 64.0662 62.965 64.384C63.2876 64.7018 63.5437 65.0805 63.7185 65.4979C63.8933 65.9154 63.9833 66.3633 63.9832 66.8158C63.9831 67.2682 63.893 67.7161 63.718 68.1335C63.5431 68.5509 63.2868 68.9295 62.9641 69.2472C62.6414 69.5649 62.2587 69.8154 61.8382 69.9842C61.4177 70.153 60.9677 70.2368 60.5145 70.2306C59.6151 70.2183 58.7567 69.8529 58.1251 69.2136C57.4935 68.5743 57.1395 67.7124 57.1396 66.8145C57.1398 65.9166 57.4942 65.0549 58.126 64.4158C58.7578 63.7767 59.6164 63.4117 60.5158 63.3997Z" fill="#D3ECEC"/>
<path fill-rule="evenodd" clip-rule="evenodd" d="M60.5156 64.3687C60.8285 64.3687 61.127 64.4274 61.4024 64.5342C61.2124 64.6443 61.064 64.8138 60.9801 65.0165C60.8963 65.2192 60.8816 65.4439 60.9385 65.6557C60.9953 65.8676 61.1204 66.0548 61.2946 66.1886C61.4687 66.3224 61.6821 66.3951 61.9018 66.3957C62.2804 66.3957 62.6089 66.1865 62.7791 65.8766C62.9806 66.3613 63.0207 66.8977 62.8933 67.4068C62.766 67.9159 62.478 68.3706 62.0718 68.7037C61.6657 69.0369 61.163 69.2308 60.638 69.2569C60.113 69.2829 59.5936 69.1397 59.1564 68.8485C58.7191 68.5572 58.3874 68.1332 58.21 67.6393C58.0327 67.1453 58.0193 66.6075 58.1716 66.1053C58.324 65.6031 58.6342 65.1632 59.0562 64.8505C59.4783 64.5377 59.99 64.3688 60.5156 64.3687V64.3687ZM0 56.3222H159.153C155.688 55.4451 148.19 54.2595 149.426 49.7256C143.125 57.0043 127.929 54.8323 124.093 51.2436C119.823 57.4266 94.9606 55.076 93.2265 50.2591C87.8723 56.5315 71.2822 56.5315 65.928 50.2591C64.1927 55.076 39.331 57.4266 35.0601 51.2429C31.2253 54.8323 16.03 57.0043 9.72841 49.7262C10.965 54.2595 3.46621 55.4451 0 56.3228" fill="#364548"/>
<path fill-rule="evenodd" clip-rule="evenodd" d="M69.6096 88.0108C61.1365 83.9972 56.4863 78.5406 53.8987 72.585C50.751 73.4814 46.9681 74.0548 42.572 74.301C40.9162 74.3934 39.174 74.4409 37.3467 74.4409C35.2391 74.4409 33.0182 74.3784 30.6865 74.2554C38.4569 82.0076 48.0157 87.9758 65.7153 88.0845C67.0219 88.0845 68.3186 88.0595 69.6096 88.0108" fill="#BDD9D7"/>
<path fill-rule="evenodd" clip-rule="evenodd" d="M57.046 78.0807C55.8739 76.4921 54.7368 74.4956 53.9008 72.5835C50.7531 73.4812 46.969 74.0546 42.5723 74.3014C45.5923 75.9374 49.9108 77.4535 57.0466 78.0807" fill="#D3ECEC"/>
</svg>
