<svg width="259" height="134" viewBox="0 0 259 134" fill="none" xmlns="http://www.w3.org/2000/svg">
<rect width="259" height="134" fill="black" fill-opacity="0"/>
<rect width="112.592" height="77.5257" fill="black" fill-opacity="0" transform="translate(0 81.812) scale(0.525399)"/>
<path d="M0 122.051H8.53267V88.2946L21.7424 117.722C23.3009 121.284 25.4345 122.544 29.6184 122.544C33.803 122.544 35.854 121.284 37.4133 117.722L50.6224 88.2946V122.051H59.1557V88.3499C59.1557 85.0622 57.8424 83.4726 55.1353 82.6512C48.6537 80.6236 44.305 82.3769 42.3356 86.7609L29.3724 115.804L16.8194 86.7609C14.9325 82.3769 10.5019 80.6236 4.02041 82.6512C1.31267 83.4726 0 85.0622 0 88.3499V122.051Z" fill="#00618A"/>
<rect width="77.3664" height="75.2102" fill="black" fill-opacity="0" transform="translate(66.251 94.4844) scale(0.525399)"/>
<path d="M66.251 94.5749H74.7811V113.172C74.7014 114.182 75.1047 116.554 79.7791 116.627C82.1638 116.665 98.1842 116.627 98.3337 116.627V94.4844H106.884C106.923 94.4844 106.875 124.681 106.876 124.81C106.923 132.257 97.652 133.875 93.3789 134H66.4364V128.249C66.4835 128.249 93.359 128.254 93.4268 128.248C98.9184 127.667 98.2699 124.932 98.2692 124.012V121.77H80.1332C71.6954 121.692 66.3221 118.003 66.2556 113.758C66.2496 113.365 66.4377 94.7606 66.251 94.5749Z" fill="#00618A"/>
<rect width="72.7703" height="75.0936" fill="black" fill-opacity="0" transform="translate(113.459 82.5967) scale(0.525399)"/>
<path d="M113.459 122.051H137.99C140.862 122.051 143.652 121.448 145.867 120.407C149.559 118.709 151.364 116.407 151.364 113.393V107.146C151.364 104.68 149.313 102.378 145.293 100.844C143.159 100.022 140.534 99.5836 137.99 99.5836H127.652C124.207 99.5836 122.566 98.5425 122.156 96.2413C122.074 95.9671 122.074 95.7474 122.074 95.4738V91.5837C122.074 91.364 122.074 91.1444 122.156 90.8708C122.566 89.1175 123.469 88.6235 126.504 88.35C126.751 88.35 127.078 88.2947 127.325 88.2947H151.692V82.5967H127.735C124.289 82.5967 122.483 82.8157 120.843 83.3083C115.756 84.8979 113.541 87.4187 113.541 91.8027V96.7892C113.541 100.625 117.89 103.913 125.191 104.68C126.012 104.734 126.832 104.789 127.652 104.789H136.513C136.842 104.789 137.17 104.789 137.416 104.844C140.124 105.064 141.272 105.557 142.093 106.543C142.585 107.036 142.749 107.53 142.749 108.077V113.064C142.749 113.667 142.339 114.434 141.519 115.091C140.78 115.749 139.55 116.188 137.909 116.298C137.58 116.298 137.334 116.352 137.006 116.352H113.459V122.051H113.459Z" fill="#E48E00"/>
<rect width="71.99" height="75.0936" fill="black" fill-opacity="0" transform="translate(204.594 82.5967) scale(0.525399)"/>
<path d="M204.594 112.133C204.594 117.996 208.942 121.284 217.721 121.942C218.541 121.996 219.362 122.051 220.182 122.051H242.417V116.352H220.018C215.014 116.352 213.127 115.091 213.127 112.078V82.5967C213.127 82.5967 204.594 82.5967 204.594 82.5967V112.133Z" fill="#E48E00"/>
<rect width="87.0798" height="86.1288" fill="black" fill-opacity="0" transform="translate(156.811 82.6694) scale(0.525399)"/>
<path d="M156.811 112.432V92.1144C156.811 86.9529 160.428 83.8224 167.581 82.8339C168.321 82.7247 169.143 82.6694 169.883 82.6694H186.079C186.901 82.6694 187.642 82.7247 188.464 82.8339C195.617 83.8224 199.234 86.9529 199.234 92.1144V112.432C199.234 116.619 197.698 118.861 194.157 120.321L202.562 127.921H192.655L185.855 121.772L179.009 122.207H169.883C168.321 122.207 166.677 121.986 164.868 121.493C159.442 120.01 156.811 117.154 156.811 112.432ZM166.02 111.938C166.02 112.213 166.102 112.487 166.185 112.816C166.678 115.177 168.897 116.495 172.268 116.495H180.02L172.899 110.055H182.807L189.018 115.672C190.162 115.061 190.915 114.126 191.178 112.926C191.26 112.652 191.26 112.377 191.26 112.103V92.609C191.26 92.3894 191.26 92.1144 191.178 91.8395C190.685 89.6435 188.465 88.3808 185.176 88.3808H172.268C168.487 88.3808 166.02 90.0283 166.02 92.609V111.938V111.938Z" fill="#E48E00"/>
<rect width="183.014" height="179.881" fill="black" fill-opacity="0" transform="translate(161.376) scale(0.525399)"/>
<path d="M249.925 73.1426C244.68 73.0001 240.674 73.4887 237.248 74.9359C236.275 75.3473 234.723 75.3579 234.564 76.5801C235.099 77.1419 235.182 77.9806 235.607 78.6715C236.425 79.9975 237.806 81.7742 239.038 82.7061C240.384 83.7239 241.771 84.8129 243.214 85.6942C245.781 87.2625 248.647 88.1578 251.119 89.7288C252.575 90.6547 254.022 91.8209 255.444 92.866C256.146 93.3826 256.618 94.186 257.531 94.5095C257.531 94.4603 257.531 94.4103 257.531 94.3604C257.052 93.7487 256.928 92.9073 256.487 92.2683C255.842 91.6212 255.195 90.9736 254.549 90.3259C252.653 87.805 250.246 85.591 247.688 83.7518C245.648 82.2847 241.082 80.3031 240.231 77.9247C240.181 77.8748 240.132 77.8248 240.082 77.7749C241.528 77.6118 243.222 77.0873 244.557 76.7292C246.799 76.1267 248.803 76.2825 251.119 75.6834C252.163 75.3845 253.206 75.085 254.251 74.7868C254.251 74.5871 254.251 74.3887 254.251 74.189C253.08 72.9855 252.246 71.3933 250.969 70.3042C247.63 67.4552 243.985 64.6089 240.231 62.2354C238.149 60.919 235.577 60.0636 233.371 58.9481C232.629 58.573 231.325 58.3779 230.835 57.7526C229.676 56.2724 229.045 54.3964 228.151 52.6724C226.278 49.0607 224.44 45.1162 222.781 41.3166C221.65 38.7255 220.911 36.1701 219.5 33.8455C212.728 22.6912 205.439 15.9585 194.147 9.34097C191.744 7.93364 188.851 7.37782 185.794 6.65172C184.154 6.55227 182.513 6.45216 180.872 6.35271C179.871 5.93341 178.829 4.70607 177.89 4.11131C174.149 1.74378 164.554 -3.40596 161.783 3.36437C160.033 7.63782 164.397 11.808 165.958 13.9733C167.054 15.4924 168.456 17.1956 169.239 18.9039C169.754 20.0266 169.843 21.1525 170.284 22.3408C171.368 25.2673 172.311 28.4513 173.714 31.1562C174.423 32.5246 175.204 33.9664 176.1 35.1904C176.65 35.9413 177.591 36.2721 177.74 37.4318C176.819 38.7229 176.767 40.727 176.249 42.3626C173.918 49.7257 174.797 58.8778 178.188 64.3273C179.228 66.0001 181.679 69.588 185.048 68.2121C187.996 67.0092 187.337 63.2822 188.181 59.994C188.371 59.2483 188.254 58.7004 188.628 58.2011C188.628 58.2505 188.628 58.3006 188.628 58.3506C189.523 60.1435 190.418 61.9363 191.313 63.7289C193.299 66.9347 196.826 70.2849 199.814 72.5455C201.363 73.7177 202.583 75.7446 204.586 76.4303C204.586 76.3803 204.586 76.3311 204.586 76.2805C204.536 76.2805 204.487 76.2805 204.437 76.2805C204.049 75.6741 203.441 75.4231 202.946 74.9359C201.778 73.7896 200.481 72.3644 199.515 71.0511C196.798 67.3547 194.396 63.3088 192.208 59.0976C191.163 57.0869 190.254 54.8683 189.373 52.8219C189.034 52.0328 189.038 50.8399 188.33 50.431C187.365 51.9307 185.944 53.1431 185.198 54.9138C184.004 57.7442 183.85 61.1959 183.408 64.7753C183.147 64.8691 183.263 64.8046 183.109 64.9244C181.032 64.4225 180.302 62.2802 179.531 60.4425C177.578 55.7946 177.215 48.3105 178.933 42.9606C179.378 41.5766 181.387 37.2167 180.574 35.938C180.186 34.662 178.905 33.9242 178.188 32.9491C177.301 31.7439 176.415 30.1571 175.801 28.7653C174.203 25.1413 173.457 21.0732 171.775 17.4101C170.971 15.6589 169.611 13.8868 168.494 12.33C167.257 10.6054 165.872 9.33512 164.914 7.24915C164.573 6.50807 164.11 5.32167 164.616 4.55983C164.777 4.04561 165.003 3.83113 165.511 3.66339C166.376 2.99514 168.785 3.88572 169.686 4.26081C172.078 5.25604 174.074 6.2038 176.1 7.54816C177.073 8.19431 178.056 9.44368 179.232 9.78956C179.679 9.78956 180.127 9.78956 180.574 9.78956C182.674 10.2732 185.026 9.93973 186.987 10.5364C190.454 11.5922 193.561 13.2342 196.383 15.0192C204.98 20.457 212.008 28.1978 216.816 37.4318C217.59 38.9185 217.924 40.3376 218.605 41.9146C219.98 45.0947 221.712 48.3671 223.079 51.4769C224.444 54.5797 225.774 57.711 227.703 60.293C228.718 61.6503 232.635 62.3784 234.415 63.1318C235.662 63.6603 237.707 64.2108 238.889 64.9244C241.147 66.289 243.334 67.9132 245.452 69.4076C246.51 70.1545 249.763 71.7926 249.925 73.1426Z" fill="#00618A"/>
<rect width="9.93514" height="11.947" fill="black" fill-opacity="0" transform="translate(180.573 16.2124) scale(0.525399)"/>
<path fill-rule="evenodd" clip-rule="evenodd" d="M183.258 16.2143C182.165 16.1942 181.391 16.334 180.573 16.5128C180.573 16.5627 180.573 16.6128 180.573 16.6623C180.623 16.6623 180.673 16.6623 180.723 16.6623C181.244 17.7361 182.165 18.4271 182.81 19.3522C183.307 20.3981 183.804 21.4441 184.302 22.4894C184.351 22.4399 184.402 22.3899 184.451 22.3404C185.375 21.6884 185.798 20.6452 185.793 19.0532C185.423 18.6631 185.369 18.1736 185.048 17.7081C184.621 17.088 183.796 16.7357 183.258 16.2143Z" fill="#00618A"/>
<rect width="23.9372" height="23.9796" fill="black" fill-opacity="0" transform="translate(246.423 109.891) scale(0.525399)"/>
<path fill-rule="evenodd" clip-rule="evenodd" d="M246.423 116.19C246.423 119.953 249.391 122.49 252.711 122.49C256.031 122.49 258.999 119.953 258.999 116.19C258.999 112.427 256.031 109.891 252.711 109.891C249.391 109.891 246.423 112.427 246.423 116.19ZM257.591 116.19C257.591 119.045 255.411 121.18 252.711 121.18C249.978 121.18 247.831 119.045 247.831 116.19C247.831 113.334 249.978 111.2 252.711 111.2C255.411 111.2 257.591 113.334 257.591 116.19ZM254.405 119.785H255.813L253.752 116.627C254.858 116.509 255.696 115.971 255.696 114.661C255.696 113.2 254.774 112.595 252.997 112.595H250.196V119.785H251.404V116.677H252.527L254.405 119.785V119.785ZM251.404 115.669V113.603H252.795C253.516 113.603 254.388 113.737 254.388 114.578C254.388 115.585 253.6 115.669 252.695 115.669H251.404Z" fill="#E48E00"/>
</svg>
