<svg width="420" height="134" viewBox="0 0 420 134" fill="none" xmlns="http://www.w3.org/2000/svg">
<rect width="420" height="134" fill="black" fill-opacity="0"/>
<rect width="750.352" height="239.398" fill="black" fill-opacity="0" transform="scale(0.559738)"/>
<rect width="404.979" height="148.535" fill="black" fill-opacity="0" transform="translate(193.318 11.4517) scale(0.559738)"/>
<path d="M229.869 41.5007C229.869 44.8269 227.139 47.7955 223.579 47.7955C220.849 47.7955 218.476 48.5087 216.458 50.0528C214.204 51.4792 212.423 53.4975 211 55.7538C208.151 59.5551 206.729 64.0678 206.134 65.7295V88.2966C206.134 91.7413 203.168 94.5923 199.608 94.5923C196.166 94.5923 193.318 91.7413 193.318 88.2966V41.5007C193.318 38.056 196.166 35.3245 199.608 35.3245C203.168 35.3245 206.134 38.057 206.134 41.5007V42.3325C206.846 41.5007 207.796 40.5513 208.627 39.9567C212.543 37.3447 217.646 35.206 223.579 35.3245C227.139 35.3245 229.869 38.057 229.869 41.5007V41.5007Z" fill="#636466"/>
<path d="M226.384 64.8988C226.503 48.7459 239.082 35.2061 255.339 35.2061C270.767 35.2061 282.99 46.7267 283.94 62.76C283.94 62.8795 283.94 63.1176 283.94 63.3538C283.94 63.5918 283.94 64.1846 283.822 64.4227C283.465 67.2737 280.973 69.1743 277.65 69.1743H239.912C240.506 71.9067 241.811 74.9939 243.948 77.0132C246.44 79.8641 251.187 82.0001 255.339 82.3567C259.611 82.7124 264.714 81.6444 267.682 79.388C270.173 76.7742 275.039 77.1317 276.582 79.0305C278.125 80.695 279.311 84.2583 276.582 86.7508C270.766 92.0943 263.765 94.5896 255.338 94.5896C239.082 94.4729 226.503 81.0516 226.384 64.8988ZM239.319 59.0792H272.903C271.717 54.3284 265.664 47.3214 255.339 46.4896C245.253 46.9638 240.269 54.2099 239.319 59.0792V59.0792Z" fill="#636466"/>
<path d="M344.403 88.1783C344.403 91.623 341.554 94.5925 337.994 94.5925C334.79 94.5925 332.298 92.3362 331.704 89.4852C327.195 92.5724 321.499 94.5925 315.565 94.5925C299.545 94.5925 286.728 81.0526 286.728 65.0184C286.728 48.7461 299.545 35.2062 315.565 35.2062C321.38 35.2062 327.076 37.1059 331.466 40.194V17.8659C331.466 14.4212 334.315 11.4517 337.993 11.4517C341.553 11.4517 344.402 14.4212 344.402 17.8659V64.8989C344.402 64.8989 344.402 64.8989 344.402 65.0184V88.1783H344.403ZM315.566 48.1524C311.293 48.1524 307.377 49.9335 304.412 53.0216C301.445 55.9912 299.664 60.2658 299.664 65.0175C299.664 69.5302 301.444 73.8057 304.412 76.7753C307.377 79.8643 311.293 81.6454 315.566 81.6454C319.956 81.6454 323.754 79.8643 326.72 76.7753C329.686 73.8066 331.467 69.5302 331.467 65.0175C331.467 60.2658 329.687 55.9912 326.72 53.0216C323.754 49.9335 319.956 48.1524 315.566 48.1524Z" fill="#636466"/>
<path d="M366.982 20.3603C366.982 23.9236 364.253 26.8922 360.573 26.8922C357.013 26.8922 354.165 23.9236 354.165 20.3603V17.8659C354.165 14.3026 357.013 11.4517 360.573 11.4517C364.253 11.4517 366.982 14.3026 366.982 17.8659V20.3603ZM366.982 41.8576V88.1783C366.982 91.7415 364.253 94.5925 360.573 94.5925C357.013 94.5925 354.165 91.7415 354.165 88.1783V41.8576C354.165 38.0572 357.013 35.3248 360.573 35.3248C364.254 35.3248 366.982 38.0572 366.982 41.8576Z" fill="#636466"/>
<path d="M375.141 77.6074C377.277 74.7583 381.431 74.4017 384.041 76.658C387.127 79.2719 392.468 82.0015 397.095 81.8839C400.299 81.8839 403.266 80.8159 405.165 79.6276C406.827 78.2021 407.3 77.0155 407.3 76.0643C407.3 75.4705 407.182 75.2334 406.945 74.8759C406.826 74.5202 406.352 74.0451 405.401 73.4523C403.74 72.2639 400.18 70.9569 395.908 70.1261H395.789C392.11 69.4138 388.549 68.4635 385.465 67.0371C382.261 65.4939 379.412 63.3562 377.276 60.1495C375.971 58.0117 375.259 55.3988 375.259 52.6673C375.259 47.2033 378.345 42.5712 382.261 39.6016C386.414 36.7516 391.399 35.2075 396.858 35.2075C405.046 35.2075 410.861 39.1274 414.659 41.7394C417.508 43.6401 418.338 47.5599 416.557 50.5276C414.659 53.3786 410.742 54.2104 407.776 52.1912C403.979 49.6977 400.655 47.7961 396.858 47.7961C393.891 47.7961 391.28 48.7465 389.738 49.9339C388.195 51.0037 387.839 52.0726 387.839 52.6663C387.839 53.1406 387.839 53.2601 388.076 53.6158C388.196 53.8529 388.551 54.328 389.382 54.8032C390.926 55.8721 394.011 56.941 398.046 57.6542L398.164 57.7737H398.283C402.2 58.485 405.879 59.5548 409.32 61.2175C412.524 62.643 415.729 64.8993 417.746 68.2245C419.171 70.5994 420.001 73.3318 420.001 76.0633C420.001 81.883 416.797 86.7532 412.524 89.8404C408.252 92.809 402.911 94.592 397.096 94.592C387.84 94.4734 380.72 90.1979 375.973 86.3975C373.361 84.2597 373.006 80.2204 375.141 77.6074V77.6074Z" fill="#636466"/>
<rect width="279.097" height="239.398" fill="black" fill-opacity="0" transform="scale(0.559738)"/>
<path d="M150.098 103.325C141.761 107.674 98.5744 125.445 89.3802 130.242C80.186 135.04 75.0783 134.994 67.8153 131.518C60.5523 128.043 14.5941 109.464 6.3154 105.504C2.17745 103.524 0.00195312 101.854 0.00195312 100.276C0.00195312 98.7018 0.00195312 84.4727 0.00195312 84.4727C0.00195312 84.4727 59.8332 71.4364 69.493 67.9687C79.1519 64.5001 82.5029 64.3751 90.7228 67.3888C98.9436 70.4025 148.094 79.278 156.218 82.2558C156.218 82.2558 156.215 96.3701 156.215 97.8352C156.215 99.3976 154.341 101.112 150.098 103.325V103.325Z" fill="#A41E11"/>
<path d="M150.098 87.5173C141.761 91.8645 98.5744 109.638 89.3802 114.434C80.186 119.233 75.0783 119.186 67.8153 115.711C60.5514 112.238 14.5941 93.6549 6.31541 89.6964C-1.96324 85.7361 -2.13681 83.0101 5.99583 79.8237C14.1276 76.6354 59.8333 58.6885 69.494 55.2199C79.1529 51.7531 82.5038 51.6263 90.7237 54.6409C98.9445 57.6545 141.873 74.7559 149.997 77.7337C158.122 80.7143 158.434 83.1682 150.098 87.5173V87.5173Z" fill="#D82C20"/>
<path d="M150.098 77.5545C141.761 81.9036 98.5744 99.6749 89.3802 104.473C80.186 109.27 75.0783 109.223 67.8153 105.748C60.5514 102.275 14.5941 83.6939 6.3154 79.7336C2.17745 77.7539 0.00195312 76.0858 0.00195312 74.5077C0.00195312 72.9333 0.00195312 58.7023 0.00195312 58.7023C0.00195312 58.7023 59.8332 45.667 69.493 42.1984C79.1519 38.7307 82.5029 38.6048 90.7228 41.6184C98.9436 44.6321 148.094 53.5058 156.218 56.4846C156.218 56.4846 156.215 70.5989 156.215 72.0657C156.215 73.6272 154.341 75.3413 150.098 77.5545V77.5545Z" fill="#A41E11"/>
<path d="M150.098 61.7473C141.761 66.0964 98.5744 83.8677 89.3802 88.6662C80.186 93.4629 75.0783 93.416 67.8153 89.941C60.5514 86.4678 14.5941 67.8858 6.31541 63.9264C-1.96324 59.967 -2.13681 57.241 5.99583 54.0527C14.1276 50.8663 59.8333 32.9185 69.494 29.4508C79.1529 25.9831 82.5038 25.8572 90.7237 28.8709C98.9445 31.8845 141.873 48.985 149.997 51.9637C158.122 54.9433 158.434 57.3982 150.098 61.7473Z" fill="#D82C20"/>
<path d="M150.098 50.8308C141.761 55.1799 98.5744 72.9521 89.3802 77.7506C80.186 82.5473 75.0783 82.5004 67.8153 79.0254C60.5514 75.5522 14.5941 56.9702 6.3154 53.0108C2.17745 51.0311 0.00195312 49.3621 0.00195312 47.785C0.00195312 46.2097 0.00195312 31.9795 0.00195312 31.9795C0.00195312 31.9795 59.8332 18.9442 69.493 15.4765C79.1519 12.0079 82.5029 11.8829 90.7228 14.8966C98.9436 17.9103 148.094 26.784 156.218 29.7627C156.218 29.7627 156.215 43.877 156.215 45.343C156.215 46.9036 154.341 48.6176 150.098 50.8308V50.8308Z" fill="#A41E11"/>
<path d="M150.098 35.0234C141.761 39.3725 98.5744 57.1447 89.3802 61.9423C80.186 66.739 75.0783 66.6921 67.8153 63.218C60.5523 59.7439 14.5941 41.1629 6.31541 37.2035C-1.96324 33.2441 -2.13681 30.5172 5.99583 27.3298C14.1276 24.1424 59.8333 6.19648 69.494 2.72787C79.1529 -0.740735 82.5038 -0.86572 90.7237 2.14886C98.9445 5.16252 141.873 22.2629 149.997 25.2416C158.122 28.2195 158.434 30.6753 150.098 35.0234Z" fill="#D82C20"/>
<path d="M85.0428 21.2061L82.0106 28.5072L77.1113 20.3633L61.4824 18.958L73.146 14.7458L69.6472 8.28564L80.5633 12.5612L90.8641 9.18909L88.076 15.869L98.5734 19.8008L85.0428 21.2061Z" fill="white"/>
<path d="M55.9346 44.72L92.1347 39.1587L81.204 55.2067L55.9346 44.72Z" fill="white"/>
<path d="M46.1782 38.8726C56.8638 38.8726 65.5262 35.512 65.5262 31.3665C65.5262 27.221 56.8638 23.8604 46.1782 23.8604C35.4925 23.8604 26.8301 27.221 26.8301 31.3665C26.8301 35.512 35.4925 38.8726 46.1782 38.8726Z" fill="white"/>
<path d="M136 30.2743L114.59 38.7335L114.578 21.7939L136 30.2743Z" fill="#7A0C00"/>
<path d="M114.577 21.7939L114.589 38.7335L112.27 39.6489L90.8721 31.1778L114.577 21.7939Z" fill="#AD2115"/>
</svg>
