<svg width="209" height="134" viewBox="0 0 209 134" fill="none" xmlns="http://www.w3.org/2000/svg">
<rect width="209" height="134" fill="black" fill-opacity="0"/>
<rect width="88.7417" height="85.9225" fill="black" fill-opacity="0" transform="translate(61.6836)"/>
<rect width="410.94" height="397.885" fill="black" fill-opacity="0" transform="translate(61.6836) scale(0.215948)"/>
<rect width="410.94" height="397.885" fill="black" fill-opacity="0" transform="translate(61.6836) scale(0.215948)"/>
<path d="M105.75 0.00489084C104.956 0.0517949 104.18 0.257241 103.467 0.609051L72.5879 15.3203C71.7914 15.6987 71.0908 16.2517 70.5383 16.9379C69.9859 17.6242 69.5957 18.426 69.3971 19.2836L61.8347 52.2949C61.6562 53.0605 61.6356 53.8542 61.7741 54.6279C61.9125 55.4017 62.2071 56.1392 62.6399 56.7959C62.7449 56.957 62.8559 57.1121 62.973 57.2611L84.3282 83.7535C84.8857 84.4347 85.5888 84.983 86.386 85.3583C87.1832 85.7335 88.0544 85.9263 88.9358 85.9224H123.182C124.066 85.9243 124.94 85.7282 125.738 85.3487C126.537 84.9692 127.24 84.4158 127.795 83.7293L149.138 57.2309C149.691 56.5469 150.08 55.7467 150.278 54.8906C150.475 54.0345 150.474 53.1449 150.277 52.2889L142.66 19.2474C142.461 18.3897 142.071 17.5879 141.519 16.9017C140.966 16.2154 140.265 15.6625 139.469 15.2841L108.614 0.609051C107.725 0.172423 106.74 -0.0352707 105.75 0.00489084V0.00489084Z" fill="#326CE5"/>
<path d="M106.058 11.2539C105.547 11.2896 105.07 11.5243 104.73 11.9073C104.391 12.2904 104.215 12.7912 104.242 13.302C104.242 13.302 104.242 13.3383 104.242 13.3503C104.242 13.5014 104.242 13.6887 104.242 13.8216C104.293 14.41 104.378 14.995 104.496 15.5736C104.666 16.6808 104.727 17.8018 104.678 18.9207C104.572 19.2901 104.361 19.6213 104.072 19.8753L104.03 20.6546C102.907 20.7476 101.792 20.9192 100.694 21.1682C96.0723 22.2073 91.8678 24.6017 88.6206 28.0435L87.9546 27.5723C87.589 27.6802 87.1957 27.6412 86.8586 27.4635C85.9582 26.7988 85.1247 26.0481 84.3701 25.2221C83.9916 24.7703 83.5872 24.3406 83.1592 23.9352C83.0441 23.8386 82.8746 23.7056 82.7475 23.609C82.3822 23.3153 81.9324 23.146 81.4638 23.1256C81.1845 23.1114 80.9057 23.1631 80.65 23.2764C80.3944 23.3898 80.1691 23.5617 79.9925 23.7781C79.6921 24.199 79.5712 24.7215 79.6563 25.2312C79.7414 25.7408 80.0257 26.196 80.4466 26.4969V26.4969C80.5677 26.5935 80.7191 26.7204 80.8281 26.805C81.3211 27.1322 81.8325 27.4307 82.36 27.6991C83.3425 28.244 84.2692 28.8834 85.127 29.6083C85.3472 29.9214 85.4751 30.2897 85.4963 30.6716L86.1018 31.1972C82.8373 36.0852 81.4962 42.0037 82.3357 47.8176L81.5607 48.0412C81.3589 48.3624 81.088 48.6349 80.7675 48.8387C79.6839 49.127 78.5747 49.3091 77.4556 49.3824C76.8621 49.3947 76.2697 49.4411 75.6815 49.5214L75.1911 49.6362H75.1366C74.8811 49.6701 74.6355 49.7569 74.4155 49.8909C74.1955 50.025 74.0059 50.2034 73.859 50.4147C73.712 50.626 73.6108 50.8656 73.5619 51.1181C73.5131 51.3707 73.5175 51.6306 73.5751 51.8813C73.6326 52.1321 73.7419 52.368 73.8961 52.5742C74.0502 52.7804 74.2458 52.9522 74.4702 53.0786C74.6947 53.2051 74.9431 53.2834 75.1997 53.3086C75.4562 53.3338 75.7152 53.3053 75.9601 53.2249V53.2249H75.9964L76.4989 53.1705C77.063 53.0009 77.6169 52.7992 78.1579 52.5663C79.1984 52.1485 80.2772 51.8329 81.3791 51.6239C81.7605 51.6473 82.1276 51.777 82.4387 51.9984L83.2439 51.8595C85.0461 57.4402 88.835 62.1688 93.8943 65.151L93.5552 65.8579C93.7115 66.1805 93.7684 66.5421 93.7187 66.897C93.2599 67.955 92.7003 68.9666 92.0476 69.9178C91.6885 70.3898 91.357 70.882 91.0546 71.392C90.982 71.5309 90.8911 71.7424 90.8185 71.8874C90.6888 72.1086 90.6066 72.3543 90.5772 72.6089C90.5477 72.8636 90.5717 73.1215 90.6475 73.3664C90.7233 73.6113 90.8493 73.8378 91.0175 74.0315C91.1857 74.2252 91.3924 74.3819 91.6246 74.4916C91.8567 74.6013 92.1092 74.6617 92.3659 74.6688C92.6227 74.676 92.8782 74.6298 93.1161 74.5332C93.354 74.4366 93.5692 74.2917 93.748 74.1076C93.9268 73.9236 94.0653 73.7045 94.1547 73.4642V73.4642C94.2273 73.3192 94.3242 73.1319 94.3847 72.993C94.5948 72.4398 94.7727 71.875 94.9176 71.3013C95.408 70.093 95.6744 68.7941 96.3465 67.9905C96.5659 67.785 96.8423 67.6502 97.1397 67.6039L97.5574 66.8487C103.041 68.9526 109.108 68.9676 114.602 66.891L114.971 67.5978C115.348 67.6566 115.687 67.8604 115.916 68.1657C116.437 69.1553 116.861 70.1934 117.181 71.2651C117.328 71.8388 117.508 72.4036 117.72 72.9567C117.78 73.0957 117.877 73.283 117.95 73.428C118.039 73.6683 118.178 73.8874 118.357 74.0714C118.535 74.2554 118.751 74.4003 118.989 74.4969C119.226 74.5936 119.482 74.6397 119.739 74.6326C119.995 74.6254 120.248 74.5651 120.48 74.4553C120.712 74.3456 120.919 74.1889 121.087 73.9952C121.255 73.8015 121.381 73.575 121.457 73.3301C121.533 73.0853 121.557 72.8273 121.527 72.5727C121.498 72.3181 121.416 72.0724 121.286 71.8511C121.213 71.7061 121.117 71.4947 121.044 71.3557C120.741 70.8477 120.41 70.3575 120.051 69.8876C119.412 68.9682 118.865 67.9889 118.416 66.9635C118.372 66.776 118.366 66.5816 118.398 66.3917C118.43 66.2019 118.5 66.0203 118.604 65.8579C118.485 65.6169 118.382 65.3687 118.295 65.1147C123.345 62.1118 127.117 57.3658 128.897 51.7749L129.684 51.9138C129.966 51.6566 130.338 51.52 130.719 51.5332C131.821 51.7422 132.9 52.0579 133.941 52.4757C134.481 52.7208 135.035 52.9347 135.6 53.1161C135.733 53.1524 135.927 53.1826 136.078 53.2188H136.114C136.359 53.2992 136.618 53.3277 136.875 53.3025C137.131 53.2774 137.38 53.199 137.604 53.0726C137.829 52.9461 138.024 52.7743 138.178 52.5682C138.332 52.362 138.442 52.126 138.499 51.8753C138.557 51.6246 138.561 51.3646 138.512 51.1121C138.463 50.8595 138.362 50.6199 138.215 50.4086C138.068 50.1973 137.879 50.0189 137.659 49.8849C137.439 49.7508 137.193 49.6641 136.938 49.6301C136.78 49.5939 136.556 49.5335 136.399 49.5033C135.811 49.423 135.218 49.3766 134.625 49.3643C133.506 49.291 132.396 49.1089 131.313 48.8206C130.977 48.6338 130.701 48.3577 130.514 48.0231L129.769 47.8056C130.567 41.9942 129.199 36.0927 125.924 31.2214L126.578 30.6172C126.552 30.2372 126.675 29.862 126.923 29.572C127.774 28.8418 128.695 28.1963 129.672 27.6448C130.199 27.3763 130.711 27.0777 131.204 26.7506C131.325 26.66 131.482 26.5271 131.61 26.4244C131.832 26.2861 132.023 26.1024 132.17 25.8853C132.316 25.6682 132.415 25.4226 132.459 25.1647C132.504 24.9068 132.493 24.6424 132.428 24.3889C132.363 24.1354 132.245 23.8985 132.082 23.6938C131.918 23.4891 131.713 23.3212 131.48 23.2012C131.247 23.0812 130.991 23.0117 130.729 22.9974C130.467 22.9832 130.205 23.0243 129.96 23.1183C129.716 23.2122 129.494 23.3568 129.309 23.5425C129.182 23.6392 129.012 23.7721 128.897 23.8688C128.469 24.2743 128.065 24.7039 127.686 25.1556C126.954 25.9908 126.143 26.7535 125.264 27.4333C124.909 27.5767 124.521 27.6186 124.144 27.5541L123.442 28.0556C119.391 23.8185 113.937 21.1929 108.093 20.6667C108.093 20.419 108.056 19.978 108.05 19.8451C107.736 19.6296 107.519 19.3 107.445 18.9267C107.407 17.8088 107.478 16.6899 107.657 15.5857C107.775 15.0071 107.86 14.4221 107.911 13.8337C107.911 13.6826 107.911 13.4712 107.911 13.308C107.938 12.7972 107.762 12.2964 107.423 11.9134C107.083 11.5303 106.606 11.2957 106.095 11.2599V11.2599L106.058 11.2539ZM103.745 25.5483L103.194 35.2149H103.152C103.139 35.5085 103.047 35.7932 102.885 36.0387C102.723 36.2842 102.498 36.4813 102.233 36.609C101.967 36.7367 101.672 36.7902 101.379 36.7639C101.086 36.7375 100.805 36.6323 100.567 36.4594V36.4594L92.6228 30.8408C95.1519 28.3621 98.3248 26.6378 101.784 25.8625C102.432 25.7245 103.087 25.6196 103.745 25.5483V25.5483ZM108.371 25.5483C112.544 26.0649 116.43 27.935 119.433 30.871L111.562 36.4534C111.324 36.6436 111.037 36.7632 110.734 36.7985C110.43 36.8338 110.123 36.7833 109.848 36.653C109.572 36.5226 109.338 36.3175 109.174 36.0611C109.009 35.8047 108.92 35.5073 108.916 35.2028V35.2028L108.371 25.5483ZM89.7347 34.4778L97.0004 40.9484V40.9906C97.2221 41.184 97.3871 41.4337 97.4779 41.7131C97.5687 41.9926 97.5819 42.2914 97.5161 42.5778C97.4502 42.8641 97.3078 43.1273 97.104 43.3393C96.9002 43.5514 96.6426 43.7043 96.3586 43.7819V43.8121L87.0342 46.4885C86.5719 42.2967 87.5221 38.0708 89.7347 34.4778V34.4778ZM122.328 34.4778C124.535 38.0613 125.51 42.2654 125.107 46.4522L115.77 43.7698V43.7335C115.486 43.656 115.229 43.503 115.025 43.291C114.821 43.079 114.679 42.8158 114.613 42.5294C114.547 42.2431 114.56 41.9443 114.651 41.6648C114.742 41.3853 114.907 41.1356 115.128 40.9423V40.9423L122.34 34.502L122.328 34.4778ZM104.569 41.4498H107.542L109.358 43.7517L108.698 46.6275L106.028 47.9083L103.352 46.6275L102.722 43.7456L104.569 41.4498ZM114.093 49.3039C114.218 49.2894 114.344 49.2894 114.468 49.3039V49.3039L124.083 50.923C122.668 54.9101 119.96 58.3119 116.388 60.5896L112.67 51.6118C112.568 51.3711 112.525 51.1093 112.545 50.8486C112.565 50.5879 112.648 50.3359 112.787 50.1138C112.925 49.8917 113.115 49.706 113.34 49.5724C113.565 49.4388 113.819 49.3612 114.081 49.3462V49.3462L114.093 49.3039ZM97.9449 49.3462C98.2123 49.3504 98.4745 49.4202 98.7085 49.5494C98.9424 49.6787 99.1408 49.8635 99.2862 50.0874C99.4317 50.3113 99.5196 50.5675 99.5423 50.8333C99.5649 51.0992 99.5217 51.3666 99.4163 51.6118V51.648L95.7228 60.5533C92.1907 58.2895 89.5034 54.9286 88.0757 50.9895L97.6059 49.3764C97.7126 49.366 97.8201 49.366 97.9268 49.3764L97.9449 49.3462ZM105.998 53.249C106.301 53.2399 106.6 53.3147 106.863 53.4651C107.126 53.6155 107.342 53.8355 107.487 54.1009H107.524L112.222 62.5591C111.606 62.7655 110.979 62.9409 110.345 63.0848C106.889 63.8742 103.281 63.688 99.9249 62.5471L104.611 54.0888C104.752 53.8447 104.953 53.6412 105.197 53.4982C105.44 53.3552 105.716 53.2777 105.998 53.2732V53.249Z" fill="white" stroke="white" stroke-width="0.25"/>
<rect width="209" height="30.9683" fill="black" fill-opacity="0" transform="translate(0 103.032)"/>
<path d="M5.85497 120.22L7.64112 118.275C8.25467 117.598 8.85006 116.929 9.42728 116.269L11.056 114.384C11.5646 113.788 12.0026 113.268 12.3699 112.825H19.3208C17.9322 114.416 16.578 115.933 15.258 117.374C13.9381 118.816 12.493 120.307 10.9228 121.845C11.7843 122.636 12.5933 123.481 13.3447 124.377C14.1803 125.355 14.9876 126.362 15.7666 127.397C16.5457 128.433 17.2642 129.478 17.9221 130.533C18.576 131.58 19.125 132.535 19.569 133.397H12.8482C12.4446 132.716 11.9683 131.963 11.4193 131.137C10.8703 130.312 10.3072 129.502 9.73002 128.709C9.12858 127.903 8.49485 127.112 7.82882 126.334C7.2257 125.638 6.56325 124.995 5.84891 124.413V133.439H0V103.974L5.84891 103.032V120.22H5.85497Z" fill="black"/>
<path d="M39.9487 132.716C38.6845 133.061 37.4006 133.329 36.1039 133.519C34.4694 133.773 32.8174 133.898 31.1632 133.894C29.6723 133.938 28.1866 133.698 26.7856 133.187C25.7074 132.778 24.7539 132.098 24.0186 131.211C23.3179 130.323 22.8218 129.292 22.5654 128.19C22.2671 126.919 22.1228 125.617 22.1355 124.312V112.833H27.9845V123.593C27.9845 125.474 28.2327 126.831 28.7292 127.665C29.2257 128.499 30.1541 128.915 31.5144 128.915C31.918 128.915 32.3621 128.895 32.8464 128.855C33.3308 128.815 33.7486 128.768 34.0998 128.716V112.827H39.9487V132.716Z" fill="black"/>
<path d="M64.6274 123.12C64.6482 124.639 64.4023 126.15 63.9009 127.585C63.4528 128.857 62.7363 130.019 61.7999 130.992C60.8493 131.955 59.6979 132.698 58.4273 133.167C56.9691 133.697 55.4258 133.955 53.8741 133.928C53.1677 133.928 52.4291 133.896 51.6581 133.832C50.8871 133.767 50.1283 133.683 49.3815 133.578C48.6347 133.473 47.9223 133.348 47.2442 133.203C46.566 133.058 45.9606 132.907 45.4277 132.75V103.974L51.2766 103.032V113.302C51.9334 113.015 52.6168 112.792 53.3171 112.638C54.0651 112.477 54.8285 112.398 55.5937 112.402C56.9291 112.375 58.2548 112.635 59.4809 113.163C60.5828 113.655 61.5519 114.4 62.3085 115.338C63.1007 116.345 63.687 117.496 64.034 118.728C64.4425 120.156 64.6423 121.635 64.6274 123.12V123.12ZM58.6635 122.963C58.6635 119.205 57.2769 117.326 54.5038 117.326C53.9007 117.326 53.3002 117.406 52.7177 117.562C52.2111 117.688 51.7271 117.892 51.2827 118.166V128.757C51.5693 128.809 51.9346 128.856 52.3786 128.896C52.8226 128.936 53.307 128.956 53.8318 128.956C54.5263 129.004 55.2219 128.879 55.8561 128.592C56.4902 128.305 57.0429 127.866 57.4646 127.313C58.3244 126.03 58.745 124.504 58.6635 122.963V122.963Z" fill="black"/>
<path d="M68.1601 123.271C68.125 121.633 68.4108 120.003 69.0017 118.474C69.5036 117.196 70.2571 116.031 71.2178 115.048C72.1187 114.156 73.1947 113.458 74.3784 113C75.5453 112.534 76.7906 112.294 78.0476 112.293C80.9781 112.293 83.293 113.188 84.9924 114.976C86.6918 116.764 87.5414 119.394 87.5414 122.866C87.5414 123.205 87.5293 123.577 87.5051 123.984C87.4809 124.391 87.4547 124.749 87.4264 125.059H74.1664C74.2183 125.631 74.3967 126.184 74.6889 126.678C74.981 127.172 75.3796 127.595 75.8557 127.917C77.0467 128.677 78.446 129.047 79.8579 128.974C80.9184 128.975 81.9766 128.876 83.0185 128.678C83.8864 128.531 84.7353 128.288 85.5494 127.953L86.3365 132.69C85.9325 132.881 85.5133 133.039 85.0832 133.161C84.5098 133.33 83.9277 133.467 83.3394 133.572C82.6976 133.689 82.0114 133.787 81.2808 133.868C80.5507 133.945 79.8171 133.984 79.0829 133.983C77.4307 134.018 75.7867 133.74 74.2391 133.161C72.9492 132.668 71.7835 131.899 70.8242 130.908C69.9141 129.94 69.2315 128.782 68.8261 127.518C68.3767 126.147 68.1518 124.713 68.1601 123.271V123.271ZM81.8923 121.042C81.8671 120.55 81.7817 120.063 81.638 119.592C81.5006 119.135 81.2743 118.71 80.972 118.341C80.6586 117.966 80.2711 117.66 79.8337 117.441C79.3005 117.19 78.7152 117.07 78.1263 117.09C77.5455 117.075 76.9685 117.189 76.437 117.423C75.9872 117.63 75.5868 117.931 75.2624 118.305C74.9424 118.681 74.696 119.113 74.5358 119.58C74.3663 120.057 74.2406 120.548 74.1604 121.048H81.8923V121.042Z" fill="black"/>
<path d="M104.487 117.992C103.962 117.863 103.356 117.726 102.67 117.581C101.92 117.432 101.158 117.36 100.393 117.363C99.9539 117.368 99.5151 117.401 99.0796 117.46C98.6891 117.503 98.3025 117.576 97.9231 117.677V133.386H92.0742V113.919C93.2817 113.509 94.5106 113.164 95.7555 112.886C97.3205 112.546 98.9189 112.381 100.521 112.397C100.835 112.397 101.215 112.417 101.659 112.457C102.103 112.498 102.547 112.55 102.991 112.615C103.435 112.679 103.879 112.757 104.323 112.85C104.712 112.925 105.093 113.036 105.461 113.182L104.487 117.992Z" fill="black"/>
<path d="M108.609 113.533C109.874 113.188 111.158 112.92 112.454 112.729C114.091 112.476 115.745 112.35 117.401 112.355C118.894 112.311 120.383 112.544 121.791 113.044C122.866 113.439 123.82 114.107 124.558 114.983C125.256 115.855 125.752 116.87 126.011 117.955C126.31 119.212 126.455 120.5 126.441 121.792V133.422H120.58V122.493C120.58 120.612 120.331 119.281 119.835 118.499C119.338 117.718 118.41 117.327 117.05 117.327C116.646 117.327 116.202 117.347 115.718 117.387C115.233 117.428 114.816 117.474 114.464 117.526V133.422H108.615V113.533H108.609Z" fill="black"/>
<path d="M130.733 123.271C130.698 121.633 130.984 120.003 131.575 118.474C132.077 117.196 132.83 116.031 133.791 115.048C134.685 114.159 135.752 113.462 136.927 113C138.094 112.534 139.34 112.294 140.597 112.293C143.527 112.293 145.842 113.188 147.541 114.976C149.241 116.764 150.09 119.394 150.09 122.866C150.09 123.205 150.076 123.577 150.048 123.984C150.02 124.391 149.994 124.749 149.969 125.059H136.709C136.761 125.631 136.94 126.184 137.232 126.678C137.524 127.172 137.923 127.595 138.399 127.917C139.59 128.677 140.989 129.047 142.401 128.974C143.461 128.975 144.52 128.876 145.561 128.678C146.429 128.531 147.278 128.288 148.092 127.953L148.879 132.69C148.475 132.881 148.056 133.039 147.626 133.161C147.053 133.33 146.471 133.467 145.882 133.572C145.241 133.689 144.554 133.787 143.824 133.868C143.094 133.945 142.36 133.984 141.626 133.983C139.974 134.018 138.33 133.74 136.782 133.161C135.492 132.668 134.326 131.899 133.367 130.908C132.459 129.934 131.781 128.769 131.381 127.5C130.94 126.134 130.721 124.706 130.733 123.271V123.271ZM144.466 121.042C144.44 120.55 144.355 120.063 144.211 119.592C144.074 119.135 143.847 118.71 143.545 118.341C143.232 117.966 142.844 117.66 142.407 117.441C141.874 117.19 141.288 117.07 140.7 117.09C140.119 117.075 139.542 117.189 139.01 117.423C138.56 117.63 138.16 117.931 137.836 118.305C137.516 118.681 137.269 119.113 137.109 119.58C136.939 120.057 136.814 120.548 136.734 121.048H144.466V121.042Z" fill="black"/>
<path d="M154.432 107.697L160.281 106.754V112.796H167.305V117.629H160.281V124.879C160.233 125.898 160.457 126.911 160.929 127.815C161.361 128.544 162.231 128.909 163.539 128.909C164.19 128.907 164.841 128.849 165.482 128.734C166.102 128.628 166.71 128.464 167.299 128.244L168.122 132.788C167.357 133.094 166.569 133.342 165.767 133.531C164.723 133.759 163.656 133.864 162.588 133.845C161.239 133.886 159.894 133.667 158.628 133.198C157.651 132.816 156.786 132.192 156.116 131.386C155.465 130.569 155.015 129.611 154.802 128.589C154.543 127.398 154.417 126.182 154.426 124.964V107.697H154.432Z" fill="black"/>
<path d="M170.406 123.271C170.371 121.633 170.657 120.003 171.248 118.474C171.75 117.196 172.503 116.031 173.464 115.048C174.365 114.156 175.441 113.459 176.624 113C177.791 112.534 179.037 112.294 180.294 112.293C183.224 112.293 185.539 113.188 187.238 114.976C188.938 116.764 189.788 119.388 189.788 122.848C189.788 123.186 189.773 123.559 189.745 123.966C189.717 124.373 189.691 124.731 189.666 125.041H176.406C176.459 125.613 176.638 126.166 176.932 126.661C177.225 127.155 177.625 127.578 178.102 127.899C179.293 128.659 180.692 129.029 182.104 128.956C183.165 128.957 184.223 128.858 185.265 128.66C186.132 128.513 186.981 128.269 187.796 127.935L188.583 132.672C188.179 132.863 187.759 133.021 187.329 133.143C186.756 133.311 186.174 133.449 185.585 133.554C184.944 133.671 184.257 133.769 183.527 133.85C182.797 133.927 182.063 133.965 181.329 133.965C179.677 134 178.033 133.721 176.485 133.143C175.195 132.65 174.03 131.881 173.07 130.889C172.151 129.924 171.46 128.766 171.048 127.5C170.609 126.134 170.392 124.706 170.406 123.271V123.271ZM184.157 121.048C184.131 120.556 184.046 120.069 183.902 119.598C183.765 119.141 183.539 118.716 183.236 118.347C182.923 117.972 182.535 117.666 182.098 117.447C181.565 117.197 180.979 117.076 180.391 117.097C179.81 117.081 179.233 117.195 178.701 117.429C178.241 117.631 177.83 117.93 177.496 118.305C177.176 118.681 176.93 119.113 176.77 119.58C176.6 120.057 176.474 120.548 176.394 121.048H184.157Z" fill="black"/>
<path d="M200.219 129.229C200.991 129.276 201.765 129.169 202.495 128.915C202.717 128.805 202.899 128.631 203.018 128.415C203.137 128.199 203.187 127.952 203.161 127.707C203.136 127.447 203.043 127.199 202.891 126.987C202.739 126.775 202.534 126.606 202.296 126.498C201.457 126.019 200.578 125.615 199.668 125.29C198.819 124.98 197.986 124.627 197.173 124.233C196.474 123.899 195.832 123.456 195.272 122.922C194.747 122.408 194.335 121.79 194.061 121.109C193.755 120.297 193.609 119.433 193.631 118.566C193.597 117.686 193.775 116.811 194.15 116.014C194.525 115.217 195.087 114.522 195.787 113.986C197.224 112.862 199.198 112.3 201.708 112.3C202.927 112.295 204.144 112.406 205.341 112.633C206.276 112.797 207.196 113.039 208.09 113.358L207.073 117.901C206.345 117.66 205.606 117.459 204.857 117.297C203.974 117.106 203.072 117.015 202.168 117.025C200.336 117.025 199.42 117.535 199.42 118.554C199.418 118.761 199.457 118.966 199.535 119.158C199.642 119.372 199.805 119.554 200.007 119.683C200.312 119.893 200.634 120.077 200.97 120.233C201.373 120.43 201.89 120.648 202.52 120.886C203.612 121.276 204.674 121.744 205.698 122.287C206.436 122.673 207.105 123.177 207.678 123.78C208.146 124.288 208.494 124.895 208.696 125.556C208.904 126.293 209.004 127.056 208.992 127.821C209.042 128.722 208.856 129.62 208.454 130.428C208.052 131.236 207.447 131.926 206.697 132.431C205.168 133.47 203.004 133.992 200.207 133.996C198.669 134.027 197.134 133.869 195.635 133.525C194.774 133.324 193.928 133.061 193.104 132.739L194.085 128.003C195.077 128.393 196.1 128.7 197.143 128.921C198.155 129.13 199.186 129.233 200.219 129.229V129.229Z" fill="black"/>
</svg>
