<svg width="107" height="135" viewBox="0 0 107 135" fill="none" xmlns="http://www.w3.org/2000/svg">
<rect width="106.839" height="134.591" fill="black" fill-opacity="0"/>
<rect width="97.242" height="23.156" fill="black" fill-opacity="0" transform="translate(6.06689 111.435)"/>
<path d="M6.06689 111.435V134.591H11.9729V128.56L17.3479 133.935H26.4099L19.2219 126.747C19.2219 126.747 24.3929 126.663 24.7839 119.185C24.7839 112.324 19.6069 111.435 13.6279 111.435H6.06689ZM12.2539 117.716H17.3479V121.841H12.2539V117.716Z" fill="#CE1D05"/>
<path d="M37.8167 111.529C34.5827 111.51 30.0977 111.81 30.0977 117.904V133.998H36.1597V130.06H42.0347V133.904H48.1287V117.029C48.1287 111.736 42.2477 111.529 39.0977 111.529C38.7037 111.529 38.2787 111.532 37.8167 111.529ZM36.2537 117.341H41.9417V123.685H36.2537V117.341Z" fill="#CE1D05"/>
<path d="M60.4751 111.544H54.2031V133.696H60.4751V111.544Z" fill="#CE1D05"/>
<path d="M67.0439 111.838V133.99H82.1379V128.109H73.2189V111.74L67.0439 111.838Z" fill="#CE1D05"/>
<path d="M102.134 111.642V117.621H92.0378V119.777C92.0378 119.777 94.0968 119.777 96.3498 119.777C98.6028 119.777 103.309 119.679 103.309 126.737C103.309 133.794 100.075 134.186 93.5078 134.186C86.9398 134.186 85.5688 134.186 85.5688 134.186V128.794C85.5688 128.794 91.9397 128.794 94.6837 128.794C97.4277 128.794 97.5797 127.9 97.5797 127.122C97.5797 126.344 96.1768 125.981 93.3228 125.981C90.4688 125.981 85.1768 124.579 85.1768 119.09C85.1768 113.601 87.9208 111.542 93.4098 111.542C98.8988 111.542 102.134 111.642 102.134 111.642Z" fill="#CE1D05"/>
<rect width="106.839" height="104.879" fill="black" fill-opacity="0"/>
<path d="M11.565 104.879H63.711C63.711 104.879 52.145 78.6098 55.085 54.4978C58.026 30.3858 77.041 19.4068 87.823 18.2308C98.604 17.0538 104.486 23.7198 104.486 23.7198L106.839 20.1908C106.839 20.1908 91.352 4.50781 71.748 6.27281C52.144 8.03681 38.618 20.9748 30.189 36.6578C21.759 52.3418 16.858 63.3188 13.526 79.7858C10.194 96.2528 11.565 104.879 11.565 104.879Z" fill="#CE1D05"/>
<path d="M1.17599 78.6099L11.37 79.3939L9.60498 89.5869L0 88.4109L1.17599 78.6099Z" fill="#CE1D05"/>
<path d="M17.2511 57.0461L19.9961 49.4011L10.9781 45.8721L8.03809 54.1051L17.2511 57.0461Z" fill="#CE1D05"/>
<path d="M29.993 30.7771L35.286 24.5051L28.425 19.9961L22.936 26.0721L29.993 30.7771Z" fill="#CE1D05"/>
<path d="M43.9111 6.46875L48.6161 12.1537L55.0851 8.42874L50.3802 3.13574L43.9111 6.46875Z" fill="#CE1D05"/>
<path d="M66.8481 0L68.0241 5.686L76.0621 5.48999L75.2771 0.393005L66.8481 0Z" fill="#CE1D05"/>
<path d="M94.0969 6.07715L93.9009 9.60516L99.3899 12.5451L100.566 10.7812L94.0969 6.07715Z" fill="#CE1D05"/>
<path d="M92.9199 21.1719V24.1119L98.2129 24.6999V22.3469L92.9199 21.1719Z" fill="#CE1D05"/>
<path d="M76.062 23.7202L78.61 28.4242L82.335 25.4842L81.551 22.3472L76.062 23.7202Z" fill="#CE1D05"/>
<path d="M68.0232 29.7979L71.9442 35.6788L69.5912 39.7948L63.9062 33.5229L68.0232 29.7979Z" fill="#CE1D05"/>
<path d="M60.1828 46.0679L57.6338 51.1649L64.2988 56.8509L65.8668 50.3809L60.1828 46.0679Z" fill="#CE1D05"/>
<path d="M57.4379 63.9072L57.0459 70.7682L65.2789 74.2972L64.8869 67.8272L57.4379 63.9072Z" fill="#CE1D05"/>
<path d="M59.79 88.2158L61.7511 95.2738L72.14 95.8618L68.415 88.2158H59.79Z" fill="#CE1D05"/>
</svg>
