<svg width="227" height="227" viewBox="0 0 227 227" fill="none" xmlns="http://www.w3.org/2000/svg">
<path fill-rule="evenodd" clip-rule="evenodd" d="M113.297 0C50.7246 0 0 50.7251 0 113.297C0 175.869 50.7246 226.594 113.297 226.594C175.869 226.594 226.594 175.868 226.594 113.297C226.594 50.7251 175.869 0 113.297 0ZM85.7285 102.09L113.499 74.3201L141.283 102.104L157.442 85.9453L113.499 42L69.5703 85.9312L85.7285 102.09ZM42 113.498L58.1592 97.3384L74.3174 113.497L58.1582 129.656L42 113.498ZM85.7285 124.91L113.499 152.68L141.283 124.896L157.45 141.047L157.442 141.055L113.499 185L69.5684 141.07L69.5459 141.048L85.7285 124.91ZM152.683 113.507L168.842 97.3472L185 113.506L168.841 129.665L152.683 113.507ZM113.499 97.0942L129.889 113.491L129.903 113.499L129.896 113.509L113.499 129.906L97.1162 113.523L97.0938 113.499L97.1162 113.477L99.9883 110.605L101.381 109.212L113.499 97.0942Z" fill="black"/>
</svg>
