<svg width="227" height="227" viewBox="0 0 227 227" fill="none" xmlns="http://www.w3.org/2000/svg">
<path fill-rule="evenodd" clip-rule="evenodd" d="M0 113.297C0 50.7251 50.7246 0 113.297 0C175.869 0 226.594 50.7251 226.594 113.297C226.594 175.868 175.869 226.594 113.297 226.594C50.7246 226.594 0 175.869 0 113.297ZM161.659 72.0066L59.6162 47.8955L112.188 189.199L183.062 88.0376L161.659 72.0066ZM120.141 114.214L66.21 52.5361L158.124 74.2539L120.141 114.214ZM178.086 88.0583L161.179 75.3945L126.571 111.803L178.086 88.0583ZM114.714 180.366L121.494 117.447L176.586 92.0532L114.714 180.366ZM118.532 116.933L111.788 179.52L66.2607 57.1526L118.532 116.933Z" fill="black"/>
</svg>
