<svg width="227" height="227" viewBox="0 0 227 227" fill="none" xmlns="http://www.w3.org/2000/svg">
<rect width="226.594" height="226.594" fill="black" fill-opacity="0"/>
<path d="M113.297 0C50.725 0 0 50.725 0 113.297C0 175.869 50.725 226.594 113.297 226.594C175.869 226.594 226.594 175.868 226.594 113.297C226.594 50.725 175.869 0 113.297 0Z" fill="black"/>
<path d="M109.879 173.16L55.2708 61.8732C55.0717 61.4632 54.9798 61.0095 55.0037 60.5543C55.0276 60.0992 55.1665 59.6576 55.4074 59.2707C55.6483 58.8838 55.9834 58.5643 56.3813 58.3421C56.7792 58.1199 57.2269 58.0022 57.6827 58H76.6088C77.6232 58 78.5738 58.5675 79.0207 59.4613L118.902 140.195C122.449 147.431 132.742 147.431 136.296 140.195L176.049 59.5252C176.278 59.0837 176.624 58.7138 177.05 58.456C177.475 58.1983 177.963 58.0626 178.461 58.0638H180.816C182.213 58.0638 183.1 59.5252 182.469 60.7311L127.279 173.167C123.726 180.403 113.44 180.403 109.879 173.167V173.16Z" fill="white"/>
</svg>
