<svg width="226" height="226" viewBox="0 0 226 226" fill="none" xmlns="http://www.w3.org/2000/svg">
<rect width="226" height="226" fill="black" fill-opacity="0"/>
<rect width="226" height="226" fill="black" fill-opacity="0"/>
<path d="M109.136 0H115.907C120.155 0.27911 124.411 0.5311 128.63 1.13C143.074 3.164 157.159 7.9665 169.719 15.3974C166.829 17.6947 163.73 19.7151 160.766 21.913C140.73 36.2538 120.744 50.6692 100.683 64.975C99.058 63.628 97.65 62.0472 96.1087 60.6109C91.53 56.2265 87.08 51.7133 82.4628 47.3809C80.7791 47.9888 79.2423 48.9222 77.6716 49.7663C67.1909 55.6141 58.2718 64.1365 51.7777 74.2116C43.323 63.541 35.2198 52.5936 27.2206 41.584C26.9697 41.2167 26.746 40.8359 26.5177 40.454C29.5382 36.844 32.7881 33.4323 36.247 30.2399C53.562 14.125 76.049 3.60696 99.5722 0.84976C102.747 0.4181 105.953 0.339 109.136 0ZM164.039 42.2552C171.128 36.9081 178.229 31.5722 185.489 26.4612C200.391 38.8573 211.955 55.2095 218.786 73.337C227.441 96.0986 228.32 121.69 221.36 145.014C218.925 153.232 215.55 161.141 211.303 168.586C210.64 168.021 210.173 167.275 209.656 166.593L168.615 112.375C165.959 108.825 163.224 105.334 160.609 101.753C166.598 95.32 172.845 89.1118 178.854 82.6923C174.667 73.6477 168.669 65.5576 161.233 58.9216C158.311 56.2604 155.09 53.9699 151.836 51.7438C155.802 48.4578 159.956 45.3989 164.039 42.2552V42.2552ZM7.93147 71.5979C9.96547 66.566 12.2334 61.5974 15.0505 56.952C19.0337 61.9669 22.8373 67.1288 26.746 72.207C39.139 88.4398 51.5265 104.674 63.9082 120.91C64.7196 121.979 65.5919 123.003 66.2892 124.153C60.0357 130.68 53.6207 137.053 47.3933 143.606C48.8951 147.154 50.9291 150.454 53.0523 153.663C56.2746 158.402 60.0434 162.746 64.2811 166.604C67.3321 169.455 70.7391 171.88 74.1641 174.256C71.1798 176.764 68.0305 179.069 64.9524 181.457C59.4681 185.654 53.9386 189.792 48.364 193.871C45.7266 195.739 43.1976 197.762 40.4777 199.511C22.9333 184.844 10.0197 164.733 4.02054 142.672C1.582 133.929 0.3955 124.883 0 115.825V110.175C0.13108 108.217 0.25312 106.257 0.38985 104.299C1.25161 93.0824 3.79387 82.059 7.93147 71.5979V71.5979ZM166.806 161.566C169.603 158.541 171.993 155.182 174.325 151.799C176.848 154.903 179.255 158.104 181.702 161.27C187.762 169.236 193.761 177.246 199.562 185.399C197.907 187.708 195.858 189.709 193.912 191.776C177.677 208.488 156.17 220.026 133.216 224.158C127.792 225.199 122.272 225.64 116.761 226H108.576C106.149 225.693 103.7 225.642 101.273 225.363C85.4845 223.703 70.0102 218.723 56.3406 210.632C61.0211 207.065 65.7682 203.585 70.4713 200.043C88.4225 186.653 106.367 173.253 124.306 159.843C127.35 162.649 130.223 165.637 133.219 168.499C136.722 171.85 140.089 175.361 143.666 178.642C152.445 174.626 160.318 168.699 166.806 161.566" fill="black"/>
</svg>
