<svg id="svg" version="1.1" width="400" height="400" viewBox="0 0 400 400" xmlns="http://www.w3.org/2000/svg" xmlns:xlink="http://www.w3.org/1999/xlink" ><g id="svgg"><path id="path0" d="M267.900 27.632 C 266.999 28.157,266.999 28.727,267.900 28.656 C 268.343 28.620,268.647 28.930,268.728 29.500 C 268.944 31.022,269.600 30.496,269.600 28.800 C 269.600 27.135,269.211 26.868,267.900 27.632 M269.301 51.000 C 269.305 51.880,269.387 52.193,269.483 51.695 C 269.579 51.198,269.575 50.478,269.475 50.095 C 269.375 49.713,269.296 50.120,269.301 51.000 M269.709 54.400 C 269.709 55.390,269.787 55.795,269.882 55.300 C 269.978 54.805,269.978 53.995,269.882 53.500 C 269.787 53.005,269.709 53.410,269.709 54.400 M220.826 79.818 C 218.936 81.698,217.186 83.363,216.939 83.518 C 216.127 84.027,206.300 93.341,203.822 95.951 C 202.490 97.354,200.320 99.331,199.000 100.344 C 197.680 101.356,194.890 103.727,192.800 105.611 C 188.822 109.198,184.639 112.650,180.847 115.474 C 179.611 116.395,177.430 118.067,176.000 119.190 C 174.570 120.313,172.260 122.080,170.866 123.116 C 169.472 124.152,166.952 126.032,165.266 127.294 C 159.624 131.517,152.384 136.546,150.313 137.681 C 149.630 138.056,148.964 138.508,148.835 138.685 C 148.548 139.079,145.306 141.200,144.991 141.200 C 144.867 141.200,143.812 141.920,142.646 142.800 C 141.481 143.680,140.429 144.400,140.308 144.400 C 140.188 144.400,138.593 145.390,136.764 146.600 C 134.936 147.810,133.248 148.800,133.014 148.800 C 132.781 148.800,131.692 149.399,130.595 150.132 C 129.498 150.865,127.430 152.095,126.000 152.866 C 124.570 153.637,122.480 154.838,121.356 155.534 C 120.231 156.230,119.187 156.800,119.035 156.800 C 118.882 156.800,116.887 157.880,114.600 159.200 C 112.313 160.520,110.348 161.600,110.232 161.600 C 110.117 161.600,108.312 162.410,106.221 163.400 C 104.131 164.390,102.295 165.200,102.142 165.200 C 101.988 165.200,101.579 165.447,101.231 165.748 C 100.884 166.049,100.060 166.469,99.400 166.681 C 97.778 167.202,97.880 168.101,99.600 168.455 C 100.370 168.613,104.897 168.563,109.660 168.342 C 115.814 168.058,119.867 168.072,123.660 168.390 C 126.597 168.636,133.500 169.001,139.000 169.201 C 144.500 169.400,151.160 169.832,153.800 170.161 C 156.440 170.489,160.670 170.872,163.200 171.010 C 170.866 171.431,172.103 171.547,173.173 171.949 C 178.085 173.792,181.345 172.497,182.420 168.276 C 182.987 166.050,184.042 163.422,184.631 162.769 C 184.944 162.421,185.200 161.990,185.200 161.810 C 185.200 161.631,185.806 160.205,186.546 158.642 C 189.098 153.253,190.000 151.101,190.000 150.406 C 190.000 150.022,190.321 149.279,190.713 148.754 C 191.106 148.229,192.206 146.180,193.158 144.200 C 194.944 140.487,195.339 139.650,198.821 132.200 C 199.952 129.780,201.425 126.630,202.094 125.200 C 202.762 123.770,203.624 121.880,204.009 121.000 C 205.166 118.352,210.405 107.572,215.283 97.800 C 222.914 82.512,224.086 80.225,224.609 79.600 C 224.885 79.270,225.235 78.415,225.387 77.700 C 225.855 75.500,224.568 76.098,220.826 79.818 M235.800 86.800 C 235.459 87.460,235.269 88.000,235.379 88.000 C 235.489 88.000,235.859 87.460,236.200 86.800 C 236.541 86.140,236.731 85.600,236.621 85.600 C 236.511 85.600,236.141 86.140,235.800 86.800 M229.880 98.480 C 229.492 99.156,229.257 99.791,229.358 99.891 C 229.459 99.992,229.838 99.501,230.200 98.800 C 231.057 97.143,230.797 96.883,229.880 98.480 M210.272 139.419 C 209.332 141.389,209.464 141.724,210.447 139.862 C 210.893 139.016,211.187 138.254,211.101 138.167 C 211.014 138.081,210.641 138.644,210.272 139.419 M315.004 170.600 C 315.367 171.260,316.119 172.340,316.674 173.000 L 317.685 174.200 316.953 172.894 C 316.550 172.175,315.798 171.095,315.282 170.494 L 314.345 169.400 315.004 170.600 M219.000 178.193 C 219.880 178.493,221.050 178.737,221.600 178.735 L 222.600 178.731 221.600 178.428 C 221.050 178.261,219.880 178.017,219.000 177.886 L 217.400 177.648 219.000 178.193 M223.700 179.076 C 224.085 179.176,224.715 179.176,225.100 179.076 C 225.485 178.975,225.170 178.893,224.400 178.893 C 223.630 178.893,223.315 178.975,223.700 179.076 M95.271 183.821 C 95.452 184.690,96.161 184.743,96.324 183.900 C 96.408 183.462,96.212 183.200,95.800 183.200 C 95.416 183.200,95.195 183.459,95.271 183.821 M256.900 185.476 C 257.285 185.576,257.915 185.576,258.300 185.476 C 258.685 185.375,258.370 185.293,257.600 185.293 C 256.830 185.293,256.515 185.375,256.900 185.476 M270.600 188.000 C 271.040 188.189,271.670 188.344,272.000 188.344 C 272.378 188.344,272.304 188.217,271.800 188.000 C 271.360 187.811,270.730 187.656,270.400 187.656 C 270.022 187.656,270.096 187.783,270.600 188.000 M285.200 191.182 C 285.530 191.405,286.145 191.591,286.567 191.594 C 287.590 191.602,287.271 191.373,285.800 191.044 C 284.924 190.848,284.762 190.885,285.200 191.182 M332.329 192.710 C 333.060 193.633,333.870 194.520,334.129 194.679 C 334.388 194.839,334.002 194.214,333.271 193.290 C 332.540 192.367,331.730 191.480,331.471 191.321 C 331.212 191.161,331.598 191.786,332.329 192.710 M339.534 200.637 C 340.443 201.879,340.863 203.837,340.200 203.744 C 339.980 203.713,339.170 203.576,338.400 203.439 C 337.072 203.202,337.092 203.230,338.800 203.972 C 340.745 204.819,342.800 205.041,342.800 204.405 C 342.800 203.790,340.706 201.001,339.642 200.198 L 338.683 199.475 339.534 200.637 M126.287 323.473 C 125.960 324.027,125.524 326.400,125.749 326.400 C 126.013 326.400,126.835 323.502,126.629 323.296 C 126.547 323.214,126.393 323.294,126.287 323.473 " stroke="none" fill="#577dc2" fill-rule="evenodd"></path><path id="path1" d="M225.000 75.780 C 223.953 76.632,223.914 76.728,224.700 76.532 C 225.289 76.384,225.600 76.487,225.600 76.830 C 225.600 77.498,226.770 75.991,226.787 75.300 C 226.806 74.563,226.343 74.688,225.000 75.780 M218.000 82.090 C 215.030 84.977,213.594 86.436,214.809 85.333 C 216.023 84.230,217.193 83.249,217.409 83.153 C 217.861 82.952,223.875 76.790,223.590 76.820 C 223.485 76.831,220.970 79.202,218.000 82.090 M222.865 82.617 C 222.195 84.088,222.323 84.402,223.047 83.065 C 223.386 82.440,223.588 81.854,223.496 81.763 C 223.405 81.671,223.121 82.056,222.865 82.617 M220.734 86.900 C 217.550 93.032,211.268 105.802,211.380 105.914 C 211.528 106.061,215.503 98.382,219.462 90.300 C 221.793 85.543,222.705 83.102,220.734 86.900 M208.772 90.832 L 205.800 93.664 208.900 90.940 C 210.605 89.443,212.000 88.168,212.000 88.109 C 212.000 87.810,211.514 88.219,208.772 90.832 M202.788 96.509 C 201.791 97.439,199.901 99.153,198.588 100.318 L 196.200 102.437 198.800 100.449 C 201.130 98.668,205.249 94.786,204.783 94.809 C 204.682 94.814,203.785 95.579,202.788 96.509 M193.978 104.300 L 192.600 105.800 194.100 104.422 C 194.925 103.663,195.600 102.988,195.600 102.922 C 195.600 102.616,195.262 102.904,193.978 104.300 M191.170 106.649 C 190.636 107.226,189.210 108.428,188.000 109.321 C 186.790 110.214,185.710 111.064,185.600 111.210 C 185.490 111.357,183.870 112.699,182.000 114.193 C 177.955 117.425,178.219 117.200,178.464 117.200 C 178.975 117.200,190.118 108.234,191.570 106.655 C 192.103 106.075,192.449 105.600,192.339 105.600 C 192.229 105.600,191.703 106.072,191.170 106.649 M210.291 107.910 L 209.582 109.400 210.391 108.456 C 210.836 107.936,211.200 107.261,211.200 106.956 C 211.200 106.134,211.072 106.267,210.291 107.910 M207.682 113.021 C 206.757 114.886,206.009 116.544,206.020 116.706 C 206.031 116.868,206.853 115.406,207.845 113.459 C 208.838 111.511,209.586 109.852,209.507 109.774 C 209.428 109.695,208.607 111.156,207.682 113.021 M175.600 119.240 L 173.400 121.270 175.700 119.387 C 177.719 117.733,178.268 117.188,177.900 117.204 C 177.845 117.207,176.810 118.123,175.600 119.240 M161.400 129.860 C 160.195 130.936,160.105 131.085,161.036 130.463 C 162.141 129.724,163.532 128.376,163.149 128.415 C 163.067 128.423,162.280 129.073,161.400 129.860 M156.531 133.165 C 153.034 135.694,152.578 136.047,153.200 135.749 C 154.293 135.224,158.346 132.411,158.599 132.002 C 158.951 131.433,158.840 131.495,156.531 133.165 M197.578 134.698 C 196.674 136.501,196.687 136.679,197.620 135.283 C 198.104 134.559,198.417 133.883,198.315 133.782 C 198.213 133.680,197.881 134.092,197.578 134.698 M150.841 137.034 C 150.093 137.565,149.678 138.000,149.919 138.000 C 150.159 138.000,150.860 137.556,151.478 137.013 C 152.891 135.769,152.608 135.779,150.841 137.034 M145.800 140.400 C 145.140 140.837,144.780 141.192,145.000 141.188 C 145.401 141.182,147.576 139.623,147.200 139.612 C 147.090 139.608,146.460 139.963,145.800 140.400 M194.272 141.819 C 193.332 143.789,193.464 144.124,194.447 142.262 C 194.893 141.416,195.187 140.654,195.101 140.567 C 195.014 140.481,194.641 141.044,194.272 141.819 M141.211 143.420 C 140.447 143.959,139.997 144.399,140.211 144.398 C 140.425 144.397,141.140 143.953,141.800 143.412 C 143.341 142.149,143.005 142.153,141.211 143.420 M192.005 146.438 C 191.563 147.407,190.930 148.549,190.600 148.976 C 190.270 149.404,190.000 150.086,190.000 150.492 C 190.000 150.899,189.663 151.900,189.251 152.716 C 188.840 153.532,188.383 154.650,188.236 155.200 C 187.902 156.456,191.092 149.955,191.851 147.835 C 192.159 146.974,192.614 146.024,192.862 145.725 C 193.111 145.426,193.201 145.067,193.062 144.929 C 192.923 144.790,192.448 145.469,192.005 146.438 M135.500 147.029 C 134.675 147.570,134.000 148.093,134.000 148.192 C 134.000 148.457,136.763 146.783,137.025 146.360 C 137.336 145.857,137.198 145.917,135.500 147.029 M186.375 158.991 C 185.729 160.416,185.200 161.707,185.200 161.860 C 185.200 162.012,184.944 162.421,184.631 162.769 C 184.318 163.116,183.766 164.210,183.404 165.200 C 182.723 167.067,182.183 169.077,182.653 168.000 C 182.797 167.670,183.676 165.780,184.607 163.800 C 187.027 158.654,187.985 156.400,187.752 156.400 C 187.641 156.400,187.021 157.566,186.375 158.991 M111.000 160.800 C 110.340 161.237,109.980 161.595,110.200 161.595 C 110.420 161.595,111.140 161.237,111.800 160.800 C 112.460 160.363,112.820 160.005,112.600 160.005 C 112.380 160.005,111.660 160.363,111.000 160.800 M107.600 162.400 C 106.830 162.822,106.380 163.166,106.600 163.166 C 106.820 163.166,107.630 162.822,108.400 162.400 C 109.170 161.978,109.620 161.634,109.400 161.634 C 109.180 161.634,108.370 161.978,107.600 162.400 M104.200 164.000 C 102.636 165.036,103.192 165.037,104.890 164.001 C 105.611 163.562,106.020 163.204,105.800 163.204 C 105.580 163.205,104.860 163.563,104.200 164.000 M97.332 167.433 C 97.198 167.782,96.709 168.220,96.244 168.408 C 95.656 168.646,96.190 168.743,98.000 168.727 C 99.839 168.712,100.249 168.627,99.400 168.439 C 98.601 168.261,98.219 167.943,98.256 167.486 C 98.325 166.624,97.657 166.586,97.332 167.433 M108.400 168.386 C 105.313 168.524,108.068 168.612,115.600 168.617 C 123.051 168.623,126.399 168.520,124.200 168.355 C 120.142 168.050,115.712 168.059,108.400 168.386 M101.300 169.076 C 101.685 169.176,102.315 169.176,102.700 169.076 C 103.085 168.975,102.770 168.893,102.000 168.893 C 101.230 168.893,100.915 168.975,101.300 169.076 M128.500 169.076 C 128.885 169.176,129.515 169.176,129.900 169.076 C 130.285 168.975,129.970 168.893,129.200 168.893 C 128.430 168.893,128.115 168.975,128.500 169.076 M136.100 169.497 C 137.585 169.574,140.015 169.574,141.500 169.497 C 142.985 169.420,141.770 169.357,138.800 169.357 C 135.830 169.357,134.615 169.420,136.100 169.497 M148.105 169.887 C 148.714 169.979,149.614 169.977,150.105 169.882 C 150.597 169.787,150.100 169.711,149.000 169.714 C 147.900 169.717,147.497 169.795,148.105 169.887 M160.900 171.087 C 161.505 171.178,162.495 171.178,163.100 171.087 C 163.705 170.995,163.210 170.920,162.000 170.920 C 160.790 170.920,160.295 170.995,160.900 171.087 M166.900 171.476 C 167.285 171.576,167.915 171.576,168.300 171.476 C 168.685 171.375,168.370 171.293,167.600 171.293 C 166.830 171.293,166.515 171.375,166.900 171.476 M169.600 171.610 C 169.600 171.953,171.813 172.319,175.400 172.570 L 177.800 172.737 175.600 172.436 C 174.390 172.270,173.130 172.014,172.800 171.867 C 171.867 171.452,169.600 171.270,169.600 171.610 M97.800 181.844 C 93.493 182.300,93.444 182.753,96.956 189.610 C 101.579 198.634,102.307 200.165,103.569 203.502 C 104.256 205.319,105.554 208.469,106.454 210.502 C 108.236 214.529,109.356 217.516,110.226 220.559 C 110.534 221.637,111.059 222.935,111.393 223.445 C 111.727 223.955,112.000 224.693,112.000 225.086 C 112.000 225.479,112.350 226.880,112.778 228.200 C 113.205 229.520,114.038 232.220,114.627 234.200 C 115.216 236.180,115.946 238.367,116.249 239.060 C 116.552 239.754,116.800 240.613,116.800 240.970 C 116.800 241.328,117.160 242.644,117.600 243.896 C 118.040 245.148,118.400 246.635,118.400 247.200 C 118.400 247.765,118.760 249.252,119.200 250.504 C 119.640 251.756,120.000 253.382,120.000 254.117 C 120.000 254.852,120.356 256.792,120.791 258.427 C 121.225 260.062,121.585 262.046,121.591 262.836 C 121.596 263.626,121.871 265.156,122.202 266.236 C 122.533 267.316,122.915 269.820,123.051 271.800 C 123.188 273.780,123.550 276.390,123.857 277.600 C 125.116 282.569,125.774 308.325,125.075 325.300 C 124.843 330.925,124.875 333.200,125.185 333.200 C 125.781 333.200,126.400 331.441,126.400 329.748 C 126.400 328.978,126.597 327.980,126.837 327.530 C 127.404 326.471,128.651 322.246,129.590 318.200 C 130.684 313.489,131.166 311.671,132.027 309.000 C 132.452 307.680,132.800 306.188,132.800 305.684 C 132.800 305.180,133.160 304.062,133.600 303.200 C 134.040 302.338,134.400 301.358,134.400 301.024 C 134.400 300.447,135.215 297.651,136.797 292.800 C 137.191 291.590,138.268 288.170,139.191 285.200 C 140.113 282.230,141.187 278.900,141.578 277.800 C 141.968 276.700,142.677 274.450,143.153 272.800 C 143.629 271.150,144.290 268.990,144.623 268.000 C 144.955 267.010,145.689 264.760,146.252 263.000 C 146.816 261.240,147.599 258.900,147.991 257.800 C 149.346 254.003,149.666 252.992,150.178 250.906 C 150.461 249.754,150.876 248.584,151.100 248.306 C 151.324 248.028,151.637 247.196,151.795 246.458 C 151.953 245.720,152.494 244.280,152.998 243.258 C 153.502 242.236,154.576 239.600,155.385 237.400 C 156.194 235.200,157.203 232.734,157.628 231.921 C 158.053 231.107,158.400 230.221,158.400 229.952 C 158.400 229.497,159.975 225.214,160.810 223.400 C 161.013 222.960,161.434 221.880,161.747 221.000 C 162.060 220.120,162.678 218.500,163.121 217.400 C 163.564 216.300,164.147 214.770,164.417 214.000 C 164.688 213.230,165.231 211.790,165.624 210.800 C 166.018 209.810,166.702 208.010,167.145 206.800 C 167.588 205.590,168.607 202.980,169.410 201.000 C 170.214 199.020,171.012 196.833,171.184 196.141 C 171.356 195.448,171.790 194.463,172.149 193.952 C 172.507 193.440,172.800 192.695,172.800 192.295 C 172.800 191.895,173.160 190.862,173.600 190.000 C 176.001 185.294,175.433 185.065,157.600 183.568 C 143.183 182.358,103.701 181.220,97.800 181.844 M96.324 183.900 C 96.161 184.743,95.452 184.690,95.271 183.821 C 95.195 183.459,95.416 183.200,95.800 183.200 C 96.212 183.200,96.408 183.462,96.324 183.900 M126.370 324.922 C 126.146 325.735,125.867 326.400,125.749 326.400 C 125.524 326.400,125.960 324.027,126.287 323.473 C 126.711 322.756,126.756 323.527,126.370 324.922 M123.600 338.000 C 123.600 338.660,123.780 339.200,124.000 339.200 C 124.220 339.200,124.400 338.660,124.400 338.000 C 124.400 337.340,124.220 336.800,124.000 336.800 C 123.780 336.800,123.600 337.340,123.600 338.000 " stroke="none" fill="#3aa756" fill-rule="evenodd"></path><path id="path2" d="M267.102 28.895 C 266.736 29.173,265.492 31.290,264.337 33.600 C 263.183 35.910,261.554 38.863,260.719 40.162 C 259.884 41.461,259.200 42.693,259.200 42.898 C 259.200 43.104,258.480 44.299,257.600 45.554 C 256.720 46.808,256.000 48.106,256.000 48.437 C 256.000 48.769,255.837 49.211,255.638 49.420 C 255.202 49.877,254.451 51.224,251.411 57.000 C 250.138 59.420,248.604 62.120,248.003 63.000 C 247.401 63.880,246.775 65.029,246.611 65.554 C 246.447 66.078,245.729 67.518,245.017 68.754 C 244.305 69.989,243.172 72.170,242.499 73.600 C 240.229 78.426,235.617 87.782,234.218 90.400 C 233.453 91.830,232.170 94.440,231.366 96.200 C 230.562 97.960,229.589 99.850,229.203 100.400 C 228.502 101.399,222.400 113.396,220.862 116.800 C 220.414 117.790,219.604 119.410,219.060 120.400 C 217.311 123.586,215.028 128.673,212.146 135.800 C 211.150 138.261,209.627 141.426,208.585 143.200 C 207.724 144.664,205.200 150.208,205.200 150.633 C 205.200 150.834,204.495 152.439,203.634 154.199 C 200.937 159.710,198.510 164.962,198.213 165.930 C 198.056 166.441,197.303 168.122,196.541 169.665 C 194.386 174.025,195.125 174.770,202.633 175.803 C 205.035 176.133,208.710 176.671,210.800 176.999 C 212.890 177.326,215.360 177.596,216.289 177.597 C 217.910 177.600,221.008 178.133,227.000 179.440 C 228.540 179.776,231.330 180.299,233.200 180.601 C 238.854 181.516,244.537 182.665,245.663 183.121 C 246.247 183.358,247.867 183.670,249.263 183.816 C 250.658 183.961,252.790 184.313,254.000 184.599 C 255.210 184.885,257.176 185.238,258.369 185.382 C 259.562 185.527,260.899 185.839,261.341 186.075 C 261.782 186.312,263.596 186.665,265.372 186.861 C 267.147 187.057,271.508 187.933,275.063 188.809 C 278.617 189.684,281.857 190.398,282.263 190.395 C 283.253 190.388,288.347 191.479,291.800 192.438 C 295.617 193.497,312.220 197.478,314.200 197.808 C 315.080 197.955,316.700 198.394,317.800 198.785 C 318.900 199.176,320.700 199.622,321.800 199.776 C 323.559 200.022,325.970 200.621,333.302 202.634 C 334.349 202.921,336.158 203.244,337.323 203.352 C 338.489 203.459,339.703 203.604,340.021 203.674 C 340.844 203.853,340.586 202.074,339.593 200.716 C 339.157 200.120,338.800 199.460,338.800 199.250 C 338.800 199.039,337.467 197.637,335.837 196.133 C 333.091 193.600,331.234 191.411,328.200 187.133 C 327.540 186.203,326.319 184.685,325.486 183.760 C 324.653 182.836,323.483 181.448,322.886 180.677 C 322.289 179.906,320.312 177.445,318.493 175.209 C 316.675 172.972,314.812 170.407,314.354 169.509 C 313.895 168.611,312.863 167.012,312.060 165.955 C 308.600 161.405,298.032 144.392,297.370 142.306 C 297.228 141.859,296.521 140.482,295.797 139.246 C 293.468 135.265,288.035 124.314,286.952 121.415 C 286.374 119.867,285.669 118.060,285.387 117.400 C 285.104 116.740,284.330 114.940,283.668 113.400 C 283.005 111.860,282.072 109.262,281.593 107.627 C 281.114 105.992,280.469 104.267,280.159 103.794 C 279.849 103.320,279.066 100.878,278.420 98.367 C 277.773 95.855,276.800 92.270,276.257 90.400 C 275.715 88.530,275.142 86.100,274.984 85.000 C 274.827 83.900,274.554 82.722,274.379 82.383 C 273.789 81.240,272.040 72.632,271.638 68.893 C 271.418 66.855,271.136 65.019,271.009 64.815 C 270.149 63.423,269.106 49.946,269.150 40.800 C 269.207 29.147,268.925 27.510,267.102 28.895 " stroke="none" fill="#e9443e" fill-rule="evenodd"></path><path id="path3" d="M267.772 26.397 C 266.277 27.048,265.937 27.513,263.640 32.053 C 262.264 34.774,260.728 37.540,260.229 38.200 C 259.729 38.860,258.941 40.210,258.478 41.200 C 258.015 42.190,256.909 44.260,256.021 45.800 C 254.434 48.550,252.789 51.639,249.737 57.602 C 248.892 59.254,247.819 61.144,247.352 61.802 C 246.886 62.461,246.368 63.450,246.200 64.000 C 246.032 64.550,245.604 65.451,245.248 66.002 C 244.011 67.915,243.632 68.638,240.217 75.600 C 238.329 79.450,236.404 83.320,235.939 84.200 C 235.475 85.080,234.032 87.960,232.732 90.600 C 231.433 93.240,229.999 96.120,229.546 97.000 C 229.093 97.880,228.177 99.680,227.510 101.000 C 226.843 102.320,225.865 104.210,225.337 105.200 C 224.808 106.190,222.940 109.880,221.185 113.400 C 219.430 116.920,217.833 120.070,217.636 120.400 C 217.047 121.384,210.400 136.221,210.400 136.551 C 210.400 136.719,209.073 139.588,207.450 142.928 C 205.828 146.268,204.375 149.540,204.222 150.200 C 204.069 150.860,203.435 152.210,202.815 153.200 C 202.194 154.190,201.571 155.450,201.431 156.000 C 201.291 156.550,200.566 158.260,199.819 159.800 C 192.480 174.936,192.440 175.432,198.457 176.374 C 200.075 176.627,203.020 177.088,205.000 177.398 C 206.980 177.708,209.930 178.064,211.555 178.189 C 213.180 178.314,216.870 178.858,219.755 179.399 C 222.640 179.940,226.170 180.577,227.600 180.814 C 235.590 182.142,240.125 182.976,242.800 183.611 C 244.450 184.002,246.700 184.439,247.800 184.583 C 248.900 184.726,251.240 185.175,253.000 185.579 C 256.879 186.472,262.218 187.455,265.200 187.826 C 266.410 187.976,267.850 188.272,268.400 188.484 C 268.950 188.695,270.570 189.104,272.000 189.392 C 283.470 191.707,291.634 193.527,296.200 194.785 C 300.193 195.886,303.550 196.688,305.400 196.984 C 306.280 197.124,307.810 197.479,308.800 197.773 C 309.790 198.067,312.760 198.792,315.400 199.384 C 318.040 199.977,321.460 200.792,323.000 201.195 C 329.208 202.820,329.275 202.837,335.800 204.393 C 336.900 204.655,338.716 205.124,339.835 205.435 C 342.195 206.090,344.646 206.172,344.995 205.608 C 345.546 204.717,344.557 203.513,336.608 195.400 C 334.668 193.420,331.581 189.820,329.748 187.400 C 327.915 184.980,325.252 181.650,323.829 180.000 C 322.407 178.350,320.558 175.953,319.721 174.674 C 318.885 173.394,317.344 171.178,316.298 169.750 C 315.252 168.321,314.122 166.623,313.788 165.976 C 313.453 165.329,313.043 164.800,312.876 164.800 C 312.709 164.800,312.239 164.215,311.831 163.500 C 311.423 162.785,310.302 161.120,309.339 159.800 C 306.784 156.297,304.800 153.269,304.800 152.875 C 304.800 152.685,304.106 151.556,303.258 150.365 C 302.410 149.174,301.501 147.539,301.237 146.732 C 300.974 145.924,300.243 144.551,299.612 143.681 C 298.982 142.810,298.117 141.401,297.691 140.549 C 297.264 139.697,295.801 136.865,294.439 134.255 C 293.077 131.645,291.619 128.607,291.200 127.504 C 290.781 126.401,289.997 124.846,289.459 124.049 C 288.920 123.252,288.177 121.520,287.808 120.200 C 287.439 118.880,286.885 117.407,286.578 116.928 C 284.938 114.372,279.442 98.865,278.523 94.200 C 278.306 93.100,277.574 90.220,276.894 87.800 C 274.087 77.796,272.954 72.137,271.967 63.200 C 271.711 60.890,271.335 57.830,271.130 56.400 C 270.925 54.970,270.685 47.695,270.597 40.233 C 270.417 24.939,270.474 25.220,267.772 26.397 M269.440 30.100 C 269.015 34.971,269.064 47.610,269.522 51.000 C 269.760 52.760,270.070 56.090,270.211 58.400 C 270.351 60.710,270.705 63.590,270.997 64.800 C 271.289 66.010,271.652 68.440,271.804 70.200 C 271.956 71.960,272.328 73.995,272.630 74.723 C 272.932 75.451,273.285 76.981,273.416 78.123 C 273.547 79.265,273.898 80.920,274.197 81.800 C 274.496 82.680,274.861 84.210,275.009 85.200 C 275.157 86.190,275.873 89.070,276.599 91.600 C 277.326 94.130,278.051 96.830,278.211 97.600 C 278.371 98.370,279.032 100.350,279.680 102.000 C 280.328 103.650,281.182 106.080,281.579 107.400 C 282.275 109.719,284.126 114.496,285.608 117.800 C 286.003 118.680,286.641 120.210,287.026 121.200 C 287.744 123.045,289.346 126.598,291.535 131.200 C 292.215 132.630,293.767 135.590,294.984 137.778 C 296.200 139.965,297.304 142.098,297.437 142.518 C 297.678 143.276,299.742 146.779,302.199 150.600 C 302.906 151.700,304.332 154.040,305.367 155.800 C 307.599 159.593,310.316 163.669,311.877 165.563 C 312.495 166.312,313.360 167.502,313.800 168.205 C 315.694 171.235,318.576 175.450,319.163 176.051 C 320.031 176.938,321.006 178.136,323.082 180.865 C 324.049 182.137,325.015 183.286,325.229 183.418 C 325.641 183.673,328.725 187.692,329.400 188.854 C 329.729 189.422,335.431 195.661,339.600 200.017 C 343.660 204.258,343.547 205.875,339.308 204.206 C 338.479 203.880,336.630 203.359,335.200 203.050 C 331.548 202.260,327.647 201.275,326.000 200.726 C 325.230 200.470,323.430 200.045,322.000 199.782 C 319.328 199.290,318.008 198.979,311.800 197.376 C 309.820 196.865,305.500 195.818,302.200 195.049 C 298.900 194.280,295.030 193.357,293.600 192.999 C 292.170 192.640,289.920 192.159,288.600 191.931 C 287.280 191.702,285.570 191.283,284.800 191.000 C 284.030 190.717,282.320 190.309,281.000 190.092 C 277.258 189.479,272.386 188.419,270.305 187.766 C 269.263 187.439,267.193 187.074,265.705 186.956 C 264.217 186.838,262.370 186.498,261.600 186.200 C 260.830 185.902,259.030 185.566,257.600 185.452 C 256.170 185.339,254.370 184.989,253.600 184.675 C 252.830 184.361,250.961 183.983,249.448 183.836 C 247.934 183.688,246.054 183.299,245.271 182.972 C 244.488 182.645,242.486 182.271,240.823 182.141 C 239.161 182.011,237.435 181.679,236.990 181.402 C 236.544 181.126,234.834 180.775,233.190 180.623 C 231.545 180.470,229.390 180.104,228.400 179.808 C 227.410 179.512,225.340 179.155,223.800 179.015 C 222.260 178.875,219.920 178.507,218.600 178.195 C 216.375 177.671,212.289 177.067,202.200 175.769 C 194.279 174.750,194.281 174.752,196.748 168.894 C 197.885 166.193,198.857 164.115,203.452 154.568 C 204.413 152.570,205.200 150.567,205.200 150.117 C 205.200 149.666,205.470 149.074,205.800 148.800 C 206.130 148.526,206.400 148.147,206.400 147.958 C 206.400 147.769,207.191 145.946,208.159 143.907 C 213.014 133.674,214.400 130.650,214.400 130.293 C 214.400 129.725,216.936 124.483,224.661 109.080 C 228.434 101.556,234.627 89.190,238.422 81.600 C 242.218 74.010,245.544 67.530,245.814 67.200 C 246.084 66.870,246.441 66.150,246.607 65.600 C 246.774 65.050,247.401 63.880,248.003 63.000 C 248.604 62.120,250.138 59.420,251.411 57.000 C 254.451 51.224,255.202 49.877,255.638 49.420 C 255.837 49.211,256.000 48.760,256.000 48.419 C 256.000 48.077,256.641 46.898,257.424 45.799 C 258.206 44.699,259.193 43.080,259.617 42.200 C 260.040 41.320,261.104 39.340,261.980 37.800 C 262.856 36.260,263.778 34.550,264.029 34.000 C 264.280 33.450,264.644 32.730,264.839 32.400 C 265.033 32.070,265.561 31.118,266.012 30.283 C 268.236 26.174,269.791 26.091,269.440 30.100 M221.484 78.500 C 218.982 80.975,218.479 81.549,220.367 79.776 C 225.646 74.819,227.981 73.493,226.240 76.440 C 225.845 77.108,225.601 77.734,225.697 77.830 C 226.054 78.188,227.316 75.279,227.075 74.652 C 226.648 73.538,226.168 73.869,221.484 78.500 M224.155 80.612 C 223.790 81.169,223.564 81.698,223.653 81.787 C 223.742 81.876,224.118 81.420,224.489 80.774 C 225.314 79.336,225.069 79.217,224.155 80.612 M212.600 86.662 C 210.620 88.562,209.360 89.923,209.800 89.686 C 210.592 89.260,216.756 83.196,216.390 83.204 C 216.285 83.206,214.580 84.762,212.600 86.662 M206.981 92.100 L 205.400 93.800 207.100 92.219 C 208.681 90.748,208.984 90.400,208.681 90.400 C 208.616 90.400,207.851 91.165,206.981 92.100 M202.985 96.100 L 201.000 98.200 203.100 96.215 C 205.051 94.371,205.383 94.000,205.085 94.000 C 205.022 94.000,204.077 94.945,202.985 96.100 M195.000 103.038 L 192.200 105.668 195.100 103.176 C 197.675 100.963,198.252 100.391,197.900 100.403 C 197.845 100.405,196.540 101.591,195.000 103.038 M213.078 103.005 C 212.712 103.772,212.495 104.400,212.596 104.400 C 212.870 104.400,214.084 101.951,213.901 101.768 C 213.814 101.681,213.444 102.238,213.078 103.005 M211.588 105.622 C 211.346 106.074,211.207 106.622,211.280 106.839 C 211.352 107.057,211.618 106.687,211.871 106.017 C 212.397 104.625,212.239 104.405,211.588 105.622 M190.181 107.300 L 188.600 109.000 190.300 107.419 C 191.881 105.948,192.184 105.600,191.881 105.600 C 191.816 105.600,191.051 106.365,190.181 107.300 M174.126 119.912 C 173.426 120.510,171.896 121.679,170.726 122.508 C 168.402 124.157,165.440 126.654,166.400 126.156 C 166.730 125.984,168.045 124.979,169.322 123.921 C 170.599 122.863,172.129 121.745,172.722 121.437 C 173.670 120.944,176.016 118.781,175.570 118.812 C 175.476 118.818,174.827 119.313,174.126 119.912 M159.133 131.009 C 158.326 131.537,157.549 132.159,157.407 132.389 C 157.264 132.620,157.969 132.254,158.974 131.576 C 159.978 130.898,160.800 130.266,160.800 130.172 C 160.800 129.924,160.748 129.950,159.133 131.009 M145.944 140.024 L 145.000 140.847 146.200 140.145 C 147.779 139.220,147.803 139.200,147.311 139.200 C 147.079 139.200,146.464 139.571,145.944 140.024 M137.500 145.429 C 136.675 145.970,136.000 146.493,136.000 146.592 C 136.000 146.857,138.763 145.183,139.025 144.760 C 139.336 144.257,139.198 144.317,137.500 145.429 M133.400 148.027 C 132.740 148.450,132.405 148.797,132.656 148.798 C 132.906 148.799,133.536 148.446,134.056 148.013 C 135.245 147.023,134.959 147.029,133.400 148.027 M125.000 152.800 C 124.340 153.237,123.980 153.592,124.200 153.588 C 124.601 153.582,126.776 152.023,126.400 152.012 C 126.290 152.008,125.660 152.363,125.000 152.800 M121.911 154.560 C 119.771 155.832,119.511 156.244,121.473 155.255 C 122.393 154.791,123.259 154.229,123.396 154.006 C 123.714 153.493,123.698 153.499,121.911 154.560 M186.857 158.857 C 186.161 160.434,185.655 161.788,185.734 161.867 C 185.812 161.946,186.446 160.720,187.143 159.143 C 187.839 157.566,188.345 156.212,188.266 156.133 C 188.188 156.054,187.554 157.280,186.857 158.857 M184.679 163.574 C 184.306 164.206,184.001 164.876,184.001 165.062 C 184.002 165.248,184.372 164.795,184.823 164.055 C 185.274 163.315,185.579 162.646,185.501 162.567 C 185.422 162.489,185.052 162.942,184.679 163.574 M96.418 167.386 C 95.683 167.929,94.883 168.446,94.641 168.536 C 93.111 169.104,95.294 169.565,98.017 169.249 L 101.000 168.904 98.200 168.827 C 96.080 168.768,95.619 168.661,96.300 168.388 C 96.795 168.189,97.200 167.834,97.200 167.600 C 97.200 167.366,97.605 167.011,98.100 166.812 C 98.656 166.589,98.762 166.441,98.378 166.425 C 98.035 166.411,97.154 166.844,96.418 167.386 M115.507 168.690 C 116.226 168.779,117.306 168.777,117.907 168.686 C 118.508 168.595,117.920 168.522,116.600 168.524 C 115.280 168.526,114.788 168.601,115.507 168.690 M104.711 169.093 C 105.651 169.178,107.091 169.177,107.911 169.091 C 108.730 169.005,107.960 168.936,106.200 168.937 C 104.440 168.939,103.770 169.009,104.711 169.093 M125.305 169.087 C 125.914 169.179,126.814 169.177,127.305 169.082 C 127.797 168.987,127.300 168.911,126.200 168.914 C 125.100 168.917,124.697 168.995,125.305 169.087 M130.307 169.490 C 131.026 169.579,132.106 169.577,132.707 169.486 C 133.308 169.395,132.720 169.322,131.400 169.324 C 130.080 169.326,129.588 169.401,130.307 169.490 M144.505 169.887 C 145.114 169.979,146.014 169.977,146.505 169.882 C 146.997 169.787,146.500 169.711,145.400 169.714 C 144.300 169.717,143.897 169.795,144.505 169.887 M181.282 171.227 C 180.784 172.092,180.457 172.800,180.555 172.800 C 180.831 172.800,182.512 169.979,182.339 169.806 C 182.255 169.722,181.780 170.362,181.282 171.227 M150.100 170.276 C 150.485 170.376,151.115 170.376,151.500 170.276 C 151.885 170.175,151.570 170.093,150.800 170.093 C 150.030 170.093,149.715 170.175,150.100 170.276 M152.900 170.676 C 153.285 170.776,153.915 170.776,154.300 170.676 C 154.685 170.575,154.370 170.493,153.600 170.493 C 152.830 170.493,152.515 170.575,152.900 170.676 M156.900 171.087 C 157.505 171.178,158.495 171.178,159.100 171.087 C 159.705 170.995,159.210 170.920,158.000 170.920 C 156.790 170.920,156.295 170.995,156.900 171.087 M170.500 172.276 C 170.885 172.376,171.515 172.376,171.900 172.276 C 172.285 172.175,171.970 172.093,171.200 172.093 C 170.430 172.093,170.115 172.175,170.500 172.276 M111.900 181.498 C 113.715 181.572,116.685 181.572,118.500 181.498 C 120.315 181.423,118.830 181.363,115.200 181.363 C 111.570 181.363,110.085 181.423,111.900 181.498 M94.480 182.080 C 93.732 182.828,93.931 184.896,94.856 186.000 L 95.695 187.000 95.047 185.914 C 94.691 185.317,94.400 184.285,94.400 183.622 C 94.400 182.381,94.556 182.283,97.200 181.866 C 97.817 181.769,97.579 181.688,96.580 181.654 C 95.689 181.625,94.744 181.816,94.480 182.080 M124.691 181.889 C 125.401 181.977,126.661 181.979,127.491 181.892 C 128.321 181.805,127.740 181.733,126.200 181.731 C 124.660 181.729,123.981 181.800,124.691 181.889 M134.500 182.287 C 135.105 182.378,136.095 182.378,136.700 182.287 C 137.305 182.195,136.810 182.120,135.600 182.120 C 134.390 182.120,133.895 182.195,134.500 182.287 M143.700 182.694 C 144.745 182.776,146.455 182.776,147.500 182.694 C 148.545 182.612,147.690 182.544,145.600 182.544 C 143.510 182.544,142.655 182.612,143.700 182.694 M173.068 185.383 C 173.845 185.721,174.404 186.295,174.513 186.867 C 174.684 187.765,174.693 187.767,174.746 186.923 C 174.803 185.998,173.463 184.789,172.411 184.816 C 172.075 184.824,172.371 185.080,173.068 185.383 M189.386 187.906 C 188.097 188.821,185.909 193.057,185.163 196.081 C 184.712 197.907,184.057 199.842,183.708 200.383 C 183.123 201.288,180.693 208.141,179.446 212.400 C 179.156 213.390,178.383 215.280,177.727 216.600 C 176.664 218.742,174.889 223.984,171.702 234.400 C 171.130 236.270,170.531 237.980,170.372 238.200 C 170.213 238.420,169.892 239.230,169.658 240.000 C 169.424 240.770,168.842 242.480,168.364 243.800 C 167.886 245.120,167.171 247.370,166.775 248.800 C 166.378 250.230,165.783 252.210,165.452 253.200 C 163.817 258.082,163.191 260.288,163.182 261.200 C 163.177 261.750,162.825 262.920,162.400 263.800 C 161.975 264.680,161.621 265.642,161.614 265.938 C 161.606 266.234,161.337 266.954,161.016 267.538 C 160.694 268.122,159.958 270.400,159.378 272.600 C 158.799 274.800,158.182 276.780,158.006 277.000 C 157.831 277.220,157.401 278.799,157.051 280.508 C 156.701 282.218,155.945 285.008,155.371 286.708 C 153.822 291.295,152.524 295.905,152.048 298.501 C 151.816 299.767,151.424 301.182,151.176 301.646 C 150.581 302.756,149.200 307.766,149.200 308.811 C 149.200 309.262,148.855 310.308,148.433 311.135 C 148.012 311.961,147.537 313.349,147.379 314.219 C 147.221 315.088,146.752 316.476,146.337 317.302 C 145.921 318.129,145.334 320.199,145.032 321.902 C 144.730 323.606,144.174 325.810,143.797 326.800 C 143.420 327.790,142.875 330.220,142.586 332.200 C 142.074 335.714,141.115 338.982,139.886 341.400 C 139.551 342.060,139.066 343.410,138.809 344.400 C 137.599 349.059,137.098 350.830,136.156 353.776 C 135.598 355.522,134.888 358.852,134.579 361.176 C 134.270 363.499,133.833 366.029,133.608 366.797 C 133.106 368.518,133.073 370.926,133.556 370.627 C 133.751 370.506,134.029 369.938,134.173 369.363 C 134.318 368.789,134.974 367.572,135.632 366.660 C 137.927 363.474,139.491 360.974,139.802 359.991 C 140.625 357.396,145.116 349.583,146.811 347.800 C 148.226 346.311,151.709 341.631,154.550 337.400 C 155.732 335.640,157.190 333.750,157.789 333.200 C 158.389 332.650,159.309 331.355,159.835 330.322 C 160.361 329.290,161.028 328.300,161.318 328.122 C 161.608 327.945,162.915 326.485,164.222 324.877 C 169.045 318.949,169.761 318.106,173.912 313.474 C 176.241 310.874,178.689 308.291,179.352 307.733 C 180.015 307.175,181.107 305.953,181.779 305.017 C 182.451 304.080,184.076 302.343,185.391 301.157 C 186.707 299.971,189.137 297.709,190.791 296.131 C 194.472 292.621,202.323 286.000,202.804 286.000 C 202.997 286.000,204.200 285.044,205.477 283.877 C 206.755 282.709,208.430 281.324,209.200 280.799 C 209.970 280.274,211.204 279.154,211.943 278.309 C 212.682 277.464,214.032 276.394,214.943 275.932 C 215.854 275.470,217.163 274.622,217.852 274.046 C 218.541 273.471,219.981 272.400,221.052 271.667 C 222.123 270.935,224.169 269.506,225.597 268.492 C 227.026 267.478,229.571 265.828,231.252 264.825 C 236.072 261.948,236.505 261.673,238.200 260.414 C 239.080 259.761,240.430 259.020,241.200 258.768 C 242.580 258.317,246.707 256.114,251.400 253.325 C 252.720 252.540,255.497 251.200,257.570 250.347 C 259.644 249.494,261.638 248.527,262.002 248.198 C 262.366 247.869,262.816 247.600,263.004 247.600 C 263.192 247.600,265.403 246.595,267.919 245.367 C 270.435 244.139,274.137 242.538,276.147 241.809 C 278.156 241.080,281.521 239.669,283.624 238.674 C 285.728 237.679,288.146 236.734,288.998 236.574 C 289.850 236.414,292.810 235.480,295.574 234.499 C 306.140 230.749,307.298 230.366,309.862 229.771 C 311.313 229.435,313.782 228.742,315.350 228.233 C 316.917 227.723,320.360 226.912,323.000 226.431 C 325.640 225.951,328.880 225.300,330.200 224.986 C 331.520 224.672,334.130 224.147,336.000 223.819 C 343.681 222.475,347.654 221.679,347.896 221.437 C 348.436 220.897,346.776 219.877,344.865 219.575 C 343.767 219.401,341.188 218.632,339.134 217.865 C 337.080 217.098,334.502 216.338,333.404 216.176 C 332.306 216.013,329.606 215.363,327.404 214.730 C 325.202 214.097,321.304 213.043,318.741 212.387 C 316.179 211.732,313.569 210.928,312.941 210.600 C 312.314 210.273,311.080 210.004,310.200 210.004 C 309.320 210.003,307.250 209.624,305.600 209.161 C 303.950 208.699,301.430 207.990,300.000 207.587 C 294.232 205.959,290.249 205.066,283.000 203.774 C 278.820 203.029,274.230 202.136,272.800 201.791 C 271.370 201.445,268.850 200.889,267.200 200.555 C 265.550 200.222,263.390 199.702,262.400 199.401 C 261.410 199.099,259.098 198.650,257.262 198.402 C 255.427 198.154,253.525 197.800,253.036 197.614 C 252.548 197.428,251.080 197.152,249.774 197.000 C 248.468 196.849,245.690 196.395,243.600 195.992 C 237.370 194.791,233.134 194.069,230.800 193.809 C 229.590 193.675,227.250 193.231,225.600 192.823 C 220.729 191.619,212.994 190.353,202.200 188.994 C 199.560 188.661,196.410 188.225,195.200 188.024 C 192.468 187.570,189.932 187.519,189.386 187.906 M152.432 244.339 C 152.195 244.784,152.001 245.384,152.002 245.674 C 152.004 245.963,152.277 245.678,152.610 245.040 C 152.942 244.403,153.136 243.802,153.040 243.706 C 152.943 243.610,152.670 243.895,152.432 244.339 M151.634 247.000 C 151.601 247.440,151.310 248.149,150.987 248.576 C 150.664 249.004,150.400 249.631,150.400 249.971 C 150.400 250.310,150.770 249.898,151.222 249.055 C 151.674 248.212,151.965 247.224,151.868 246.861 C 151.732 246.347,151.680 246.378,151.634 247.000 M125.314 315.400 C 125.317 316.500,125.395 316.903,125.487 316.295 C 125.579 315.686,125.577 314.786,125.482 314.295 C 125.387 313.803,125.311 314.300,125.314 315.400 M124.940 321.200 C 124.940 323.070,125.009 323.835,125.093 322.900 C 125.177 321.965,125.177 320.435,125.093 319.500 C 125.009 318.565,124.940 319.330,124.940 321.200 M126.864 327.419 C 126.609 327.979,126.421 329.014,126.446 329.719 L 126.492 331.000 126.811 329.600 C 126.987 328.830,127.257 327.795,127.412 327.300 C 127.793 326.082,127.438 326.159,126.864 327.419 M124.628 328.300 C 123.650 332.861,123.063 339.654,123.582 340.400 C 124.271 341.389,124.787 340.137,124.794 337.463 C 124.798 335.739,125.010 334.860,125.600 334.109 C 126.040 333.550,126.389 332.711,126.375 332.246 C 126.350 331.421,126.341 331.422,125.988 332.300 C 125.204 334.250,124.690 333.270,124.887 330.200 C 125.091 327.033,125.016 326.488,124.628 328.300 M124.400 338.000 C 124.400 338.660,124.220 339.200,124.000 339.200 C 123.780 339.200,123.600 338.660,123.600 338.000 C 123.600 337.340,123.780 336.800,124.000 336.800 C 124.220 336.800,124.400 337.340,124.400 338.000 " stroke="none" fill="#f9b931" fill-rule="evenodd"></path><path id="path5" d="M267.467 22.267 C 267.320 22.413,267.200 22.921,267.200 23.395 C 267.200 23.871,266.395 25.097,265.400 26.135 C 264.410 27.169,263.600 28.303,263.600 28.657 C 263.600 29.460,261.742 33.708,260.532 35.672 C 259.898 36.702,259.290 37.183,258.513 37.272 C 257.535 37.384,257.415 37.548,257.521 38.617 C 257.754 40.945,256.374 43.072,255.873 41.158 C 255.751 40.689,255.419 40.396,255.126 40.497 C 254.586 40.683,254.560 41.604,255.030 43.925 C 255.253 45.027,255.063 45.600,253.904 47.325 C 253.137 48.466,252.112 50.300,251.627 51.400 C 251.141 52.500,250.577 53.670,250.373 54.000 C 250.169 54.330,249.433 55.770,248.737 57.200 C 248.041 58.630,246.961 60.391,246.336 61.114 C 245.711 61.837,245.200 62.718,245.200 63.073 C 245.200 63.427,244.589 64.638,243.841 65.764 C 243.094 66.890,241.650 69.663,240.633 71.927 C 238.652 76.334,237.003 79.200,236.447 79.200 C 236.258 79.200,236.011 80.024,235.898 81.030 C 235.757 82.281,235.424 83.048,234.846 83.453 C 234.381 83.779,234.000 84.442,234.000 84.926 C 234.000 85.411,233.640 86.032,233.200 86.307 C 232.760 86.582,232.400 87.231,232.400 87.749 C 232.400 88.268,232.051 89.136,231.625 89.678 C 231.198 90.220,230.721 91.177,230.563 91.805 C 230.405 92.433,230.035 93.409,229.741 93.973 C 229.446 94.538,229.204 95.182,229.202 95.405 C 229.201 95.628,228.795 95.988,228.300 96.205 C 227.659 96.486,227.134 97.406,226.476 99.395 C 225.968 100.932,225.293 102.476,224.976 102.826 C 224.659 103.176,224.400 103.871,224.400 104.370 C 224.400 104.868,224.062 105.754,223.648 106.338 C 223.235 106.922,222.130 109.020,221.192 111.000 C 220.255 112.980,219.267 114.870,218.998 115.200 C 218.728 115.530,218.398 116.264,218.263 116.831 C 218.129 117.398,217.565 118.353,217.010 118.952 C 216.454 119.551,216.000 120.499,216.000 121.059 C 216.000 121.619,215.665 122.554,215.256 123.138 C 214.846 123.722,214.279 124.920,213.995 125.800 C 213.711 126.680,213.056 127.957,212.539 128.638 C 212.023 129.319,211.600 130.259,211.600 130.727 C 211.600 131.880,209.966 135.276,209.100 135.923 C 208.715 136.210,208.400 136.805,208.400 137.245 C 208.400 138.186,207.023 141.321,205.970 142.777 C 205.563 143.340,204.758 145.150,204.180 146.800 C 202.993 150.187,201.422 153.908,199.197 158.600 C 193.396 170.829,192.922 171.942,192.629 174.029 C 192.265 176.620,192.682 176.766,205.200 178.424 C 208.830 178.905,212.131 179.472,212.537 179.683 C 212.942 179.894,214.948 180.226,216.995 180.419 C 219.042 180.613,221.616 181.113,222.716 181.531 C 224.102 182.058,225.328 182.232,226.714 182.099 C 227.940 181.981,229.464 182.148,230.656 182.531 C 231.725 182.874,233.819 183.276,235.309 183.425 C 237.527 183.646,237.937 183.794,237.569 184.238 C 236.814 185.147,238.897 185.870,240.548 185.273 C 242.307 184.637,244.530 184.677,246.198 185.373 C 246.952 185.688,248.431 186.053,249.485 186.183 C 251.675 186.454,255.952 187.323,260.600 188.441 C 262.360 188.864,264.318 189.208,264.952 189.205 C 265.585 189.202,267.475 189.545,269.152 189.967 C 270.828 190.389,273.370 190.919,274.800 191.145 C 278.745 191.768,287.218 193.583,287.951 193.962 C 288.308 194.147,289.500 194.428,290.600 194.586 C 291.700 194.745,292.812 195.049,293.072 195.263 C 293.542 195.650,299.034 196.914,303.200 197.593 C 305.517 197.971,313.032 199.849,313.578 200.186 C 313.753 200.295,315.600 200.640,317.681 200.952 C 321.233 201.486,325.906 203.277,326.576 204.362 C 326.706 204.572,327.778 204.641,328.981 204.517 C 330.442 204.366,331.648 204.489,332.675 204.894 C 333.514 205.225,335.100 205.626,336.200 205.785 C 337.300 205.944,338.414 206.251,338.677 206.467 C 339.705 207.313,344.682 207.682,345.984 207.008 C 347.519 206.214,347.523 205.317,346.000 203.400 C 345.340 202.569,344.800 201.509,344.800 201.043 C 344.800 200.479,344.383 200.011,343.553 199.643 C 342.245 199.064,335.200 192.421,335.200 191.766 C 335.200 191.557,334.390 190.541,333.400 189.508 C 331.527 187.553,331.271 186.889,332.080 186.080 C 332.453 185.707,332.453 185.600,332.080 185.600 C 331.816 185.600,331.600 185.780,331.600 186.000 C 331.600 186.220,331.340 186.400,331.022 186.400 C 330.293 186.400,325.200 180.108,325.200 179.207 C 325.200 178.840,324.764 178.130,324.232 177.630 C 323.700 177.130,323.045 176.191,322.776 175.542 C 322.484 174.836,321.760 174.143,320.969 173.813 C 319.440 173.174,318.252 170.388,319.133 169.507 C 319.813 168.827,319.719 167.200,319.000 167.200 C 318.670 167.200,318.400 167.554,318.400 167.987 C 318.400 168.925,317.488 168.720,316.100 167.471 C 315.198 166.658,314.850 164.800,315.600 164.800 C 315.820 164.800,316.000 164.518,316.000 164.173 C 316.000 163.723,315.769 163.620,315.180 163.806 C 314.320 164.079,312.400 163.094,312.400 162.379 C 312.400 162.158,311.410 160.532,310.200 158.765 C 308.990 156.998,308.000 155.475,308.000 155.380 C 308.000 155.285,307.370 154.382,306.600 153.373 C 305.830 152.364,305.200 151.310,305.200 151.031 C 305.200 150.752,304.840 150.198,304.400 149.800 C 303.960 149.402,303.600 148.755,303.600 148.362 C 303.600 147.969,303.400 147.524,303.155 147.372 C 302.911 147.221,302.266 146.093,301.723 144.865 C 301.180 143.638,300.211 142.034,299.568 141.303 C 298.926 140.571,298.400 139.723,298.400 139.419 C 298.400 139.114,298.291 138.581,298.157 138.233 C 297.998 137.818,298.135 137.600,298.557 137.600 C 299.224 137.600,299.376 136.925,298.957 135.833 C 298.515 134.679,297.600 135.116,297.600 136.480 C 297.600 137.196,297.454 137.592,297.269 137.380 C 296.649 136.670,294.430 131.005,294.315 129.840 C 294.250 129.181,293.855 128.491,293.400 128.240 C 292.960 127.998,292.522 127.752,292.427 127.693 C 292.331 127.635,292.204 126.915,292.144 126.093 C 292.061 124.959,291.694 124.301,290.618 123.358 C 289.533 122.407,289.112 121.646,288.821 120.109 C 288.485 118.339,287.720 116.420,286.310 113.813 C 285.739 112.757,284.000 107.243,284.000 106.488 C 284.000 106.158,283.706 105.673,283.347 105.411 C 282.842 105.042,282.707 104.316,282.753 102.213 C 282.804 99.860,282.732 99.558,282.224 99.980 C 281.250 100.789,280.915 100.177,280.211 96.302 C 279.842 94.266,279.017 90.980,278.378 89.000 C 277.040 84.851,275.449 78.253,274.809 74.200 C 274.566 72.660,274.111 69.780,273.797 67.800 C 271.752 54.870,270.899 36.358,272.199 33.115 C 272.350 32.739,272.817 32.321,273.237 32.188 C 274.317 31.845,274.207 30.175,273.037 29.157 C 272.507 28.697,271.958 27.699,271.815 26.940 C 271.652 26.071,270.906 24.901,269.801 23.780 C 267.937 21.889,267.881 21.853,267.467 22.267 M270.597 40.233 C 270.685 47.695,270.925 54.970,271.130 56.400 C 271.335 57.830,271.711 60.890,271.967 63.200 C 272.954 72.137,274.087 77.796,276.894 87.800 C 277.574 90.220,278.306 93.100,278.523 94.200 C 279.442 98.865,284.938 114.372,286.578 116.928 C 286.885 117.407,287.439 118.880,287.808 120.200 C 288.177 121.520,288.920 123.252,289.459 124.049 C 289.997 124.846,290.781 126.401,291.200 127.504 C 291.619 128.607,293.077 131.645,294.439 134.255 C 295.801 136.865,297.264 139.697,297.691 140.549 C 298.117 141.401,298.982 142.810,299.612 143.681 C 300.243 144.551,300.974 145.924,301.237 146.732 C 301.501 147.539,302.410 149.174,303.258 150.365 C 304.106 151.556,304.800 152.685,304.800 152.875 C 304.800 153.269,306.784 156.297,309.339 159.800 C 310.302 161.120,311.423 162.785,311.831 163.500 C 312.239 164.215,312.709 164.800,312.876 164.800 C 313.043 164.800,313.453 165.329,313.788 165.976 C 314.122 166.623,315.252 168.321,316.298 169.750 C 317.344 171.178,318.885 173.394,319.721 174.674 C 320.558 175.953,322.407 178.350,323.829 180.000 C 325.252 181.650,327.915 184.980,329.748 187.400 C 331.581 189.820,334.668 193.420,336.608 195.400 C 344.557 203.513,345.546 204.717,344.995 205.608 C 344.646 206.172,342.195 206.090,339.835 205.435 C 338.716 205.124,336.900 204.655,335.800 204.393 C 329.275 202.837,329.208 202.820,323.000 201.195 C 321.460 200.792,318.040 199.977,315.400 199.384 C 312.760 198.792,309.790 198.067,308.800 197.773 C 307.810 197.479,306.280 197.124,305.400 196.984 C 303.550 196.688,300.193 195.886,296.200 194.785 C 291.634 193.527,283.470 191.707,272.000 189.392 C 270.570 189.104,268.950 188.695,268.400 188.484 C 267.850 188.272,266.410 187.976,265.200 187.826 C 262.218 187.455,256.879 186.472,253.000 185.579 C 251.240 185.175,248.900 184.726,247.800 184.583 C 246.700 184.439,244.450 184.002,242.800 183.611 C 240.125 182.976,235.590 182.142,227.600 180.814 C 226.170 180.577,222.640 179.940,219.755 179.399 C 216.870 178.858,213.180 178.314,211.555 178.189 C 209.930 178.064,206.980 177.708,205.000 177.398 C 203.020 177.088,200.075 176.627,198.457 176.374 C 192.440 175.432,192.480 174.936,199.819 159.800 C 200.566 158.260,201.291 156.550,201.431 156.000 C 201.571 155.450,202.194 154.190,202.815 153.200 C 203.435 152.210,204.069 150.860,204.222 150.200 C 204.375 149.540,205.828 146.268,207.450 142.928 C 209.073 139.588,210.400 136.719,210.400 136.551 C 210.400 136.221,217.047 121.384,217.636 120.400 C 217.833 120.070,219.430 116.920,221.185 113.400 C 222.940 109.880,224.808 106.190,225.337 105.200 C 225.865 104.210,226.843 102.320,227.510 101.000 C 228.177 99.680,229.093 97.880,229.546 97.000 C 229.999 96.120,231.433 93.240,232.732 90.600 C 234.032 87.960,235.475 85.080,235.939 84.200 C 236.404 83.320,238.329 79.450,240.217 75.600 C 243.632 68.638,244.011 67.915,245.248 66.002 C 245.604 65.451,246.032 64.550,246.200 64.000 C 246.368 63.450,246.886 62.461,247.352 61.802 C 247.819 61.144,248.892 59.254,249.737 57.602 C 252.789 51.639,254.434 48.550,256.021 45.800 C 256.909 44.260,258.015 42.190,258.478 41.200 C 258.941 40.210,259.729 38.860,260.229 38.200 C 260.728 37.540,262.264 34.774,263.640 32.053 C 265.937 27.513,266.277 27.048,267.772 26.397 C 270.474 25.220,270.417 24.939,270.597 40.233 M242.934 59.827 C 242.802 60.172,242.886 60.646,243.120 60.880 C 243.742 61.502,244.800 60.956,244.800 60.013 C 244.800 59.026,243.299 58.877,242.934 59.827 M240.448 63.110 C 240.207 63.561,240.209 64.073,240.454 64.510 C 241.079 65.627,241.600 65.304,241.600 63.800 C 241.600 62.290,241.060 61.967,240.448 63.110 M224.193 73.659 C 223.113 74.608,222.645 74.805,222.299 74.459 C 221.504 73.664,221.127 73.957,221.392 75.163 C 221.603 76.125,221.463 76.455,220.586 77.063 C 220.002 77.469,219.181 78.115,218.762 78.500 C 218.343 78.885,217.730 79.200,217.400 79.200 C 217.070 79.200,216.800 79.467,216.800 79.794 C 216.800 80.121,216.080 80.865,215.200 81.447 C 214.283 82.055,213.600 82.825,213.600 83.253 C 213.600 83.733,213.314 84.000,212.800 84.000 C 212.360 84.000,211.994 84.225,211.987 84.500 C 211.966 85.359,210.078 87.200,209.219 87.200 C 208.769 87.200,208.400 87.445,208.400 87.744 C 208.400 88.624,205.201 92.000,204.366 92.000 C 203.945 92.000,203.600 92.239,203.600 92.530 C 203.600 93.266,201.892 94.800,201.074 94.800 C 200.663 94.800,200.400 95.117,200.400 95.613 C 200.400 96.449,198.301 98.800,197.555 98.800 C 197.325 98.800,196.428 99.475,195.561 100.300 C 192.903 102.829,192.422 103.200,191.800 103.200 C 191.470 103.200,191.200 103.458,191.200 103.773 C 191.200 104.088,190.660 104.730,190.000 105.200 L 188.800 106.054 188.800 105.227 C 188.800 104.653,188.543 104.400,187.957 104.400 C 187.312 104.400,187.182 104.564,187.402 105.100 C 187.894 106.301,187.823 106.978,187.200 107.029 C 186.870 107.056,186.375 107.106,186.100 107.139 C 185.825 107.173,185.600 107.607,185.600 108.105 C 185.600 109.110,181.764 112.400,180.593 112.400 C 180.225 112.400,179.831 112.760,179.716 113.200 C 179.601 113.640,179.286 114.000,179.015 114.000 C 178.745 114.000,178.198 114.360,177.800 114.800 C 177.402 115.240,176.738 115.600,176.325 115.600 C 175.912 115.600,175.445 115.926,175.287 116.325 C 174.406 118.551,165.398 124.824,164.617 123.756 C 164.317 123.346,163.851 123.171,163.458 123.322 C 162.545 123.673,162.636 124.205,163.689 124.674 C 164.546 125.057,164.518 125.111,162.919 126.169 C 162.007 126.773,161.170 127.501,161.061 127.786 C 160.951 128.072,159.857 128.881,158.631 129.583 C 157.404 130.284,156.400 131.013,156.400 131.202 C 156.400 131.391,155.995 131.674,155.500 131.829 C 154.536 132.132,153.284 133.011,150.807 135.121 C 149.424 136.299,149.164 136.386,148.404 135.921 C 147.431 135.327,146.257 136.362,146.673 137.447 C 146.840 137.880,146.572 137.990,145.546 137.908 C 144.407 137.817,144.180 137.942,144.070 138.722 C 143.996 139.242,143.534 139.797,143.008 139.997 C 142.496 140.191,141.960 140.542,141.815 140.775 C 141.671 141.009,141.243 141.200,140.865 141.200 C 140.487 141.200,139.899 141.515,139.558 141.900 C 139.217 142.285,137.915 143.230,136.665 144.000 C 135.415 144.770,132.999 146.304,131.296 147.408 C 127.306 149.997,125.244 151.200,124.797 151.200 C 124.601 151.200,123.666 151.718,122.720 152.351 C 121.774 152.984,119.650 154.197,118.000 155.048 C 116.350 155.898,114.777 156.806,114.504 157.064 C 114.231 157.323,113.479 157.651,112.832 157.793 C 112.185 157.935,111.441 158.310,111.179 158.626 C 110.917 158.942,110.499 159.204,110.251 159.209 C 110.003 159.214,109.350 159.570,108.800 160.000 C 108.250 160.430,107.565 160.786,107.278 160.791 C 106.991 160.796,105.957 161.164,104.981 161.608 C 103.892 162.105,102.828 162.322,102.226 162.171 C 100.835 161.822,100.169 162.332,101.076 163.052 C 101.730 163.572,101.626 163.617,100.000 163.514 C 98.429 163.414,98.200 163.502,98.200 164.200 C 98.200 165.178,96.984 165.591,95.537 165.104 C 93.832 164.532,91.430 164.877,91.271 165.718 C 91.155 166.325,91.385 166.421,92.756 166.341 C 94.866 166.216,95.178 166.584,93.637 167.381 C 92.166 168.141,92.013 169.363,93.300 170.058 C 93.972 170.421,100.034 170.565,117.200 170.625 C 132.703 170.679,140.917 170.855,142.400 171.165 C 143.610 171.418,148.470 171.800,153.200 172.014 C 157.930 172.228,162.880 172.659,164.200 172.972 C 167.060 173.651,172.659 174.217,175.277 174.092 C 176.310 174.043,177.265 174.182,177.401 174.401 C 177.795 175.039,180.469 174.861,181.261 174.145 C 181.861 173.602,182.092 173.579,182.609 174.008 C 183.347 174.620,183.792 174.243,184.156 172.700 C 184.309 172.050,184.248 171.600,184.008 171.600 C 183.307 171.600,183.562 170.038,184.400 169.200 C 184.840 168.760,185.200 168.113,185.200 167.763 C 185.200 167.413,185.560 166.669,186.000 166.109 C 186.440 165.550,186.800 164.584,186.800 163.964 C 186.800 163.343,187.337 161.924,187.994 160.809 C 188.651 159.695,189.309 158.292,189.456 157.692 C 189.603 157.091,190.244 155.700,190.880 154.600 C 192.663 151.516,192.686 151.471,193.159 150.277 C 193.403 149.660,193.783 149.266,194.002 149.401 C 194.244 149.551,194.400 148.919,194.400 147.785 C 194.400 146.637,194.680 145.516,195.130 144.862 C 195.532 144.278,196.108 143.170,196.410 142.400 C 196.712 141.630,197.464 140.072,198.080 138.938 C 198.696 137.804,199.200 136.520,199.200 136.084 C 199.200 135.648,199.650 134.997,200.200 134.637 C 200.939 134.152,201.200 133.630,201.200 132.634 C 201.200 131.804,201.431 131.197,201.800 131.055 C 202.146 130.923,202.400 130.325,202.400 129.645 C 202.400 127.945,202.779 127.200,203.643 127.200 C 204.395 127.200,204.562 126.703,204.415 124.899 C 204.375 124.403,204.608 123.895,204.932 123.771 C 205.256 123.646,205.641 123.152,205.788 122.672 C 205.951 122.137,206.134 121.993,206.260 122.300 C 206.744 123.472,207.695 122.823,207.433 121.500 C 206.950 119.069,207.496 117.186,209.606 114.000 C 209.824 113.670,210.711 111.960,211.575 110.200 C 213.726 105.822,213.724 105.824,214.749 106.373 C 215.636 106.848,215.903 106.463,215.185 105.745 C 214.421 104.981,215.192 101.983,216.256 101.579 C 216.974 101.306,217.200 100.916,217.200 99.954 C 217.200 99.258,217.434 98.488,217.720 98.244 C 218.007 98.000,218.649 96.720,219.148 95.400 C 219.647 94.080,220.262 92.640,220.514 92.200 C 220.766 91.760,221.649 90.005,222.478 88.300 C 223.306 86.595,224.172 85.200,224.402 85.200 C 224.632 85.200,224.985 84.765,225.187 84.234 C 225.389 83.703,225.879 83.157,226.277 83.022 C 226.675 82.886,227.584 82.015,228.298 81.087 L 229.595 79.400 228.720 78.673 C 227.924 78.012,227.891 77.831,228.357 76.673 C 229.282 74.372,229.308 73.982,228.588 73.187 C 227.531 72.019,225.857 72.199,224.193 73.659 M227.064 74.622 C 227.201 74.978,226.238 77.334,224.817 80.122 C 217.930 93.639,205.560 118.668,204.022 122.200 C 203.543 123.300,202.980 124.470,202.772 124.800 C 202.564 125.130,202.198 125.850,201.958 126.400 C 200.835 128.978,200.380 129.995,199.186 132.600 C 197.485 136.311,195.590 140.355,192.789 146.250 C 191.522 148.918,190.354 151.528,190.194 152.050 C 190.033 152.573,189.765 153.180,189.597 153.400 C 189.429 153.620,188.754 155.150,188.097 156.800 C 187.440 158.450,185.997 161.690,184.890 164.000 C 183.782 166.310,182.671 168.858,182.420 169.661 C 181.222 173.498,180.473 173.624,168.748 171.970 C 165.750 171.546,161.880 171.196,160.148 171.192 C 158.417 171.188,155.020 170.917,152.600 170.589 C 144.089 169.439,118.436 168.737,101.834 169.200 C 97.227 169.329,94.625 169.257,94.549 169.000 C 94.391 168.461,97.488 166.557,99.072 166.220 C 99.772 166.071,100.559 165.690,100.821 165.374 C 101.083 165.058,101.495 164.800,101.735 164.800 C 102.751 164.800,113.849 159.203,121.311 154.928 C 124.121 153.318,126.566 152.000,126.744 152.000 C 126.922 152.000,128.042 151.324,129.234 150.498 C 130.425 149.671,131.923 148.762,132.562 148.478 C 133.200 148.194,134.730 147.311,135.962 146.516 C 143.289 141.784,147.079 139.349,147.661 138.998 C 148.561 138.456,156.757 132.847,158.000 131.921 C 158.550 131.512,161.580 129.247,164.733 126.889 C 167.887 124.530,171.139 122.149,171.960 121.597 C 172.782 121.045,173.995 120.145,174.656 119.597 C 175.317 119.049,176.465 118.150,177.208 117.600 C 180.886 114.878,188.997 108.288,192.200 105.422 C 194.180 103.649,196.700 101.479,197.800 100.600 C 198.900 99.720,201.690 97.171,204.000 94.936 C 206.310 92.701,209.985 89.191,212.166 87.136 C 214.347 85.081,218.366 81.285,221.096 78.700 C 226.198 73.869,226.655 73.557,227.064 74.622 M234.267 74.267 C 233.841 74.692,233.958 76.400,234.413 76.400 C 234.881 76.400,235.599 74.757,235.329 74.300 C 235.111 73.928,234.620 73.913,234.267 74.267 M230.800 75.600 C 230.800 76.040,230.980 76.400,231.200 76.400 C 231.420 76.400,231.600 76.040,231.600 75.600 C 231.600 75.160,231.420 74.800,231.200 74.800 C 230.980 74.800,230.800 75.160,230.800 75.600 M213.200 77.400 C 213.200 77.730,213.380 78.000,213.600 78.000 C 213.820 78.000,214.000 77.730,214.000 77.400 C 214.000 77.070,213.820 76.800,213.600 76.800 C 213.380 76.800,213.200 77.070,213.200 77.400 M232.000 78.533 C 232.000 80.117,232.330 80.556,233.063 79.948 C 233.946 79.215,233.753 77.200,232.800 77.200 C 232.160 77.200,232.000 77.467,232.000 78.533 M228.800 84.000 C 228.800 84.220,229.070 84.400,229.400 84.400 C 229.730 84.400,230.000 84.220,230.000 84.000 C 230.000 83.780,229.730 83.600,229.400 83.600 C 229.070 83.600,228.800 83.780,228.800 84.000 M229.473 87.061 C 229.074 87.459,229.139 88.800,229.557 88.800 C 229.754 88.800,230.007 88.559,230.120 88.264 C 230.367 87.620,229.859 86.675,229.473 87.061 M226.080 92.080 C 225.481 92.679,225.453 94.262,226.035 94.622 C 226.632 94.990,227.065 94.440,227.390 92.900 C 227.682 91.515,227.044 91.116,226.080 92.080 M285.213 101.680 C 285.206 102.274,285.457 102.904,285.772 103.080 C 286.100 103.264,286.399 104.169,286.472 105.200 C 286.636 107.513,287.737 107.760,287.923 105.526 C 288.019 104.372,287.867 103.957,287.223 103.612 C 286.770 103.370,286.400 102.943,286.400 102.662 C 286.400 102.382,286.136 101.804,285.813 101.376 C 285.249 100.632,285.225 100.644,285.213 101.680 M213.200 109.800 C 213.200 110.130,213.380 110.400,213.600 110.400 C 213.820 110.400,214.000 110.130,214.000 109.800 C 214.000 109.470,213.820 109.200,213.600 109.200 C 213.380 109.200,213.200 109.470,213.200 109.800 M213.200 121.776 C 213.200 122.339,213.380 122.800,213.600 122.800 C 213.820 122.800,214.000 122.451,214.000 122.024 C 214.000 121.597,213.820 121.136,213.600 121.000 C 213.373 120.860,213.200 121.196,213.200 121.776 M297.757 125.767 C 297.426 126.629,297.887 127.704,298.500 127.500 C 298.775 127.408,299.000 126.913,299.000 126.400 C 299.000 125.304,298.109 124.850,297.757 125.767 M153.200 127.200 C 153.200 127.420,153.470 127.600,153.800 127.600 C 154.130 127.600,154.400 127.420,154.400 127.200 C 154.400 126.980,154.130 126.800,153.800 126.800 C 153.470 126.800,153.200 126.980,153.200 127.200 M203.600 132.400 C 203.600 132.840,203.780 133.200,204.000 133.200 C 204.220 133.200,204.400 132.840,204.400 132.400 C 204.400 131.960,204.220 131.600,204.000 131.600 C 203.780 131.600,203.600 131.960,203.600 132.400 M114.400 151.200 C 114.400 151.420,114.861 151.600,115.424 151.600 C 116.004 151.600,116.340 151.427,116.200 151.200 C 116.064 150.980,115.603 150.800,115.176 150.800 C 114.749 150.800,114.400 150.980,114.400 151.200 M192.656 157.078 C 192.178 157.556,192.398 158.400,193.000 158.400 C 193.330 158.400,193.600 158.141,193.600 157.824 C 193.600 157.155,193.029 156.704,192.656 157.078 M93.200 173.400 C 93.200 173.730,93.380 174.000,93.600 174.000 C 93.820 174.000,94.000 173.730,94.000 173.400 C 94.000 173.070,93.820 172.800,93.600 172.800 C 93.380 172.800,93.200 173.070,93.200 173.400 M103.999 179.318 C 103.890 179.419,101.040 179.599,97.666 179.718 C 94.293 179.837,91.422 180.045,91.287 180.180 C 90.831 180.636,92.014 184.175,93.967 188.200 C 98.870 198.303,99.261 199.379,98.355 200.285 C 97.637 201.003,98.332 201.594,99.596 201.341 C 100.897 201.081,100.995 201.284,101.333 204.949 C 101.432 206.022,101.668 207.012,101.858 207.149 C 102.540 207.645,104.725 211.550,104.987 212.739 C 105.133 213.407,105.780 214.680,106.423 215.568 C 107.699 217.330,108.395 219.503,108.673 222.600 C 108.807 224.092,109.100 224.807,109.828 225.416 C 110.660 226.113,110.826 226.657,110.964 229.143 C 111.080 231.243,111.330 232.281,111.862 232.870 C 112.406 233.471,112.592 234.279,112.569 235.943 C 112.551 237.184,112.656 238.290,112.802 238.400 C 114.167 239.431,116.919 246.907,116.571 248.643 C 116.411 249.445,116.596 250.367,117.129 251.422 C 117.568 252.290,118.219 254.710,118.576 256.800 C 118.932 258.890,119.411 261.320,119.640 262.200 C 119.868 263.080,120.295 265.510,120.588 267.600 C 120.881 269.690,121.306 271.940,121.532 272.600 C 121.759 273.260,122.142 276.393,122.384 279.561 C 122.626 282.730,123.000 286.107,123.214 287.065 C 123.441 288.074,123.575 295.746,123.534 305.303 C 123.495 314.377,123.389 321.475,123.298 321.077 C 123.068 320.074,121.830 320.399,121.672 321.503 C 121.580 322.151,121.817 322.502,122.531 322.774 C 123.624 323.189,123.808 326.117,122.853 327.901 C 122.604 328.366,122.394 329.974,122.387 331.474 C 122.379 332.973,122.207 336.041,122.004 338.290 C 121.636 342.376,122.645 346.800,123.946 346.800 C 124.765 346.800,125.995 342.207,125.998 339.137 C 126.000 337.117,126.081 336.896,126.755 337.072 C 127.440 337.251,127.505 337.035,127.460 334.735 C 127.419 332.661,127.578 331.975,128.335 330.961 C 128.843 330.280,129.354 328.930,129.469 327.961 C 129.584 326.993,130.021 325.198,130.439 323.973 C 130.858 322.749,131.200 321.202,131.200 320.535 C 131.200 319.869,131.574 318.261,132.032 316.962 C 132.489 315.663,132.848 314.162,132.830 313.627 C 132.812 313.092,133.203 312.223,133.698 311.695 C 134.415 310.932,134.583 310.332,134.516 308.770 C 134.414 306.399,136.115 299.699,137.807 295.800 C 138.094 295.140,138.543 293.790,138.805 292.800 C 139.068 291.810,139.399 290.910,139.541 290.800 C 140.855 289.784,141.600 287.855,141.600 285.470 C 141.600 283.514,141.789 282.667,142.400 281.891 C 142.920 281.230,143.201 280.265,143.203 279.137 C 143.204 278.085,143.515 276.929,143.992 276.206 C 144.425 275.550,144.895 274.242,145.036 273.300 C 145.177 272.358,145.632 270.922,146.046 270.109 C 146.461 269.296,146.800 268.404,146.800 268.127 C 146.800 267.850,147.250 266.605,147.800 265.362 C 148.350 264.118,148.800 262.796,148.800 262.423 C 148.800 262.050,149.414 261.056,150.163 260.213 C 151.594 258.604,152.107 256.891,151.488 255.785 C 150.999 254.913,151.490 251.789,152.209 251.193 C 152.522 250.932,152.892 250.063,153.029 249.260 C 153.409 247.048,154.837 244.039,155.404 244.257 C 155.747 244.388,155.955 243.753,156.086 242.174 C 156.214 240.619,156.483 239.785,156.937 239.531 C 157.310 239.322,157.600 238.667,157.600 238.030 C 157.600 235.795,158.071 234.496,159.041 234.054 C 159.856 233.683,160.001 233.332,160.006 231.709 C 160.013 229.600,160.630 227.522,161.700 226.011 C 162.085 225.467,162.402 224.837,162.404 224.611 C 162.416 223.368,164.423 220.000,165.152 220.000 C 166.118 220.000,166.450 218.828,165.728 217.967 C 165.117 217.238,165.775 214.428,166.948 212.752 C 167.307 212.241,167.600 211.482,167.600 211.065 C 167.600 209.672,169.272 207.162,169.869 207.657 C 170.271 207.991,170.400 207.949,170.400 207.482 C 170.400 207.144,170.207 206.802,169.971 206.724 C 169.671 206.624,169.686 206.014,170.021 204.684 C 170.529 202.665,171.096 201.984,171.595 202.791 C 172.084 203.584,172.507 202.089,173.007 197.800 C 173.138 196.671,173.900 194.591,175.203 191.800 C 178.793 184.114,177.012 182.484,164.949 182.421 C 161.855 182.405,160.780 182.258,160.400 181.800 C 159.989 181.305,158.558 181.200,152.195 181.200 C 147.185 181.200,143.388 180.997,141.344 180.621 C 139.120 180.212,133.750 179.982,123.000 179.835 C 114.640 179.722,106.990 179.518,105.999 179.382 C 105.009 179.246,104.109 179.218,103.999 179.318 M160.900 179.487 C 160.213 179.734,160.269 180.400,160.976 180.400 C 161.639 180.400,162.163 179.740,161.707 179.482 C 161.538 179.386,161.175 179.389,160.900 179.487 M135.400 181.981 C 141.560 182.233,148.220 182.618,150.200 182.835 C 152.180 183.053,155.780 183.403,158.200 183.613 C 160.620 183.823,164.940 184.200,167.800 184.450 C 175.015 185.081,175.783 185.745,173.830 189.661 C 173.519 190.283,173.143 191.379,172.993 192.096 C 172.844 192.813,172.472 193.794,172.167 194.277 C 171.862 194.759,171.358 195.839,171.048 196.677 C 170.738 197.514,170.089 199.190,169.606 200.400 C 169.123 201.610,168.139 204.225,167.420 206.212 C 166.700 208.199,165.817 210.395,165.456 211.092 C 165.095 211.790,164.800 212.725,164.800 213.170 C 164.800 213.616,164.441 214.570,164.001 215.290 C 163.562 216.011,163.202 216.916,163.201 217.301 C 163.201 217.687,162.840 218.675,162.400 219.496 C 161.960 220.316,161.600 221.315,161.600 221.715 C 161.600 222.115,161.259 223.107,160.842 223.921 C 159.457 226.622,158.400 229.213,158.397 229.911 C 158.396 230.290,158.037 231.140,157.600 231.800 C 157.163 232.460,156.804 233.400,156.803 233.889 C 156.801 234.378,156.460 235.548,156.044 236.489 C 155.628 237.430,154.882 239.280,154.386 240.600 C 153.890 241.920,153.150 243.755,152.742 244.678 C 152.334 245.601,152.000 246.637,152.000 246.980 C 152.000 247.322,151.640 248.275,151.200 249.096 C 150.760 249.916,150.399 250.951,150.397 251.394 C 150.396 251.837,150.037 252.740,149.600 253.400 C 149.163 254.060,148.804 254.927,148.803 255.326 C 148.801 255.725,148.459 256.895,148.041 257.926 C 147.624 258.957,146.523 262.230,145.596 265.200 C 144.668 268.170,143.592 271.590,143.205 272.800 C 142.818 274.010,142.317 275.720,142.091 276.600 C 141.865 277.480,140.779 280.810,139.677 284.000 C 138.575 287.190,137.543 290.429,137.383 291.198 C 137.224 291.968,136.871 293.138,136.599 293.798 C 136.328 294.459,135.711 296.350,135.229 298.000 C 134.746 299.650,134.161 301.540,133.928 302.200 C 133.695 302.860,133.261 304.495,132.963 305.833 C 132.665 307.171,132.148 308.791,131.813 309.433 C 131.479 310.075,131.204 311.056,131.202 311.614 C 131.201 312.171,130.840 313.652,130.400 314.904 C 129.960 316.156,129.600 317.628,129.600 318.176 C 129.600 318.724,129.303 320.033,128.941 321.086 C 128.287 322.986,127.649 325.709,126.643 330.903 C 126.354 332.390,125.822 333.934,125.459 334.334 C 125.005 334.836,124.798 335.800,124.794 337.431 C 124.787 340.137,124.274 341.391,123.579 340.400 C 123.145 339.781,123.296 336.976,123.999 332.600 C 125.690 322.084,125.781 290.157,124.146 281.000 C 123.832 279.240,123.399 275.640,123.184 273.000 C 122.968 270.360,122.524 267.521,122.196 266.692 C 121.868 265.862,121.600 264.332,121.600 263.291 C 121.600 262.249,121.240 260.139,120.800 258.600 C 120.360 257.061,120.000 255.122,120.000 254.291 C 120.000 253.460,119.640 251.756,119.200 250.504 C 118.760 249.252,118.400 247.726,118.400 247.112 C 118.400 246.499,118.040 245.325,117.600 244.504 C 117.160 243.684,116.800 242.572,116.800 242.034 C 116.800 241.072,115.866 237.863,114.364 233.664 C 113.944 232.490,113.600 231.160,113.600 230.708 C 113.600 230.257,113.267 229.148,112.860 228.244 C 111.855 226.011,110.771 222.856,110.509 221.400 C 110.324 220.369,107.520 212.995,106.402 210.600 C 105.544 208.762,102.709 201.705,102.362 200.543 C 102.155 199.852,101.719 199.065,101.393 198.794 C 101.067 198.524,100.800 198.065,100.800 197.774 C 100.800 197.118,96.020 187.713,94.855 186.077 C 92.327 182.527,93.615 181.701,101.775 181.637 C 105.502 181.607,108.652 181.477,108.775 181.347 C 109.034 181.076,119.268 181.320,135.400 181.981 M189.185 185.300 C 189.176 185.575,188.597 186.160,187.898 186.600 C 186.517 187.469,186.052 188.473,184.005 194.994 C 183.316 197.190,182.230 200.080,181.593 201.414 C 180.956 202.749,180.312 204.611,180.161 205.553 C 179.933 206.983,179.762 207.231,179.121 207.063 C 178.134 206.805,177.198 208.558,177.931 209.291 C 178.592 209.952,178.514 211.829,177.795 212.548 C 177.462 212.881,177.080 213.701,176.946 214.370 C 176.686 215.668,176.000 215.673,176.000 214.376 C 176.000 213.272,175.251 213.415,174.798 214.605 C 174.546 215.267,174.569 216.271,174.865 217.552 C 175.374 219.759,175.068 221.600,174.192 221.600 C 173.758 221.600,173.600 222.074,173.600 223.376 C 173.600 224.353,173.422 225.263,173.205 225.397 C 172.988 225.531,172.520 226.667,172.164 227.920 C 171.809 229.174,171.099 230.930,170.587 231.823 C 170.075 232.716,169.569 234.336,169.461 235.423 C 169.281 237.248,167.181 242.902,166.357 243.780 C 166.160 243.989,165.996 244.619,165.992 245.180 C 165.987 245.741,165.537 247.721,164.992 249.579 C 164.446 251.438,164.000 253.310,164.000 253.739 C 164.000 254.169,163.562 255.438,163.027 256.560 C 161.884 258.957,160.864 261.958,160.429 264.200 C 160.259 265.080,159.925 266.250,159.688 266.800 C 159.030 268.329,157.360 273.935,156.829 276.400 C 156.568 277.610,156.081 279.410,155.746 280.400 C 155.411 281.390,154.964 283.048,154.753 284.085 C 154.542 285.122,153.926 286.972,153.385 288.196 C 152.843 289.421,152.400 290.790,152.400 291.238 C 152.400 291.686,152.185 292.446,151.923 292.926 C 151.661 293.407,151.324 294.610,151.175 295.600 C 151.025 296.590,150.425 298.660,149.840 300.200 C 149.255 301.740,148.491 304.440,148.142 306.200 C 147.792 307.960,147.271 309.779,146.982 310.242 C 146.694 310.704,146.333 311.752,146.179 312.570 C 146.026 313.388,145.472 314.945,144.948 316.030 C 144.425 317.116,143.833 319.155,143.634 320.561 C 143.435 321.968,143.065 323.505,142.811 323.979 C 142.558 324.452,142.269 325.506,142.170 326.320 C 141.814 329.229,141.257 331.825,140.651 333.400 C 140.312 334.280,140.027 335.411,140.018 335.913 C 140.008 336.416,139.518 337.766,138.929 338.913 C 138.340 340.061,137.817 341.703,137.767 342.562 C 137.718 343.422,137.231 345.312,136.686 346.762 C 134.514 352.545,133.586 356.183,133.593 358.886 C 133.599 361.329,133.487 361.701,132.349 362.997 C 131.257 364.241,131.124 364.637,131.304 366.111 C 131.418 367.040,131.426 367.575,131.322 367.300 C 130.690 365.625,129.990 366.923,130.235 369.315 C 130.448 371.389,130.354 372.088,129.699 373.310 C 129.061 374.502,128.970 375.124,129.235 376.495 C 129.417 377.433,129.573 378.335,129.583 378.500 C 129.672 380.032,132.506 377.781,133.256 375.583 C 133.516 374.822,134.059 373.771,134.464 373.246 C 134.869 372.721,135.200 372.053,135.200 371.760 C 135.200 371.467,135.716 370.637,136.346 369.914 C 136.977 369.191,137.901 367.790,138.401 366.800 C 138.901 365.810,139.645 364.572,140.054 364.048 C 140.463 363.524,140.987 362.391,141.219 361.530 C 141.451 360.668,142.171 359.127,142.820 358.104 C 143.469 357.080,144.000 355.941,144.000 355.571 C 144.000 354.277,145.060 353.865,145.775 354.881 C 146.299 355.624,146.490 355.692,146.774 355.236 C 147.166 354.608,146.909 353.600,146.357 353.600 C 145.498 353.600,146.074 351.541,147.218 350.521 C 147.888 349.924,148.818 348.797,149.284 348.018 C 150.970 345.197,153.659 341.210,154.031 340.981 C 154.240 340.851,154.787 339.993,155.247 339.073 C 155.707 338.153,156.862 336.590,157.814 335.600 C 158.766 334.610,159.962 333.053,160.472 332.140 C 161.758 329.839,164.223 326.691,167.243 323.493 C 170.632 319.905,172.584 317.598,173.155 316.504 C 173.413 316.011,174.143 315.340,174.779 315.011 C 175.505 314.635,176.030 313.976,176.193 313.233 C 176.360 312.470,177.256 311.374,178.726 310.133 C 181.951 307.410,184.400 304.861,184.400 304.226 C 184.400 303.587,187.008 301.202,187.714 301.196 C 187.981 301.193,189.370 300.002,190.800 298.549 C 192.230 297.095,193.868 295.612,194.439 295.253 C 195.011 294.894,196.403 293.588,197.532 292.351 C 198.855 290.904,200.018 290.016,200.798 289.860 C 201.576 289.705,202.178 289.246,202.483 288.577 C 202.744 288.004,203.649 287.183,204.495 286.752 C 205.340 286.320,206.219 285.570,206.447 285.084 C 206.862 284.199,210.222 281.610,212.646 280.307 C 213.355 279.926,214.316 279.080,214.780 278.428 C 215.375 277.592,216.122 277.144,217.312 276.909 C 218.590 276.656,219.129 276.306,219.532 275.465 C 219.825 274.855,220.491 274.194,221.011 273.996 C 222.138 273.567,225.654 271.152,227.571 269.489 C 228.325 268.835,229.495 268.066,230.171 267.781 C 230.847 267.496,231.834 266.843,232.365 266.331 C 232.896 265.819,234.009 265.040,234.839 264.600 C 235.669 264.160,237.755 262.993,239.474 262.008 C 241.193 261.022,243.320 259.922,244.200 259.564 C 245.080 259.205,246.876 258.252,248.192 257.446 C 249.508 256.641,251.252 255.801,252.068 255.582 C 252.884 255.362,254.147 254.551,254.874 253.780 C 256.332 252.235,258.635 251.412,260.412 251.803 C 261.443 252.029,261.638 251.894,262.383 250.433 C 262.964 249.295,263.536 248.747,264.305 248.590 C 264.907 248.468,266.480 247.848,267.800 247.211 C 273.678 244.379,276.373 243.216,277.527 243.013 C 278.210 242.893,279.613 242.345,280.644 241.797 C 281.675 241.249,282.738 240.800,283.006 240.800 C 283.273 240.800,283.921 240.463,284.446 240.051 C 284.971 239.639,287.200 238.814,289.400 238.218 C 293.448 237.121,295.295 236.505,300.000 234.679 C 304.035 233.114,311.525 230.908,314.400 230.438 C 316.611 230.076,321.625 228.671,326.200 227.131 C 328.894 226.224,333.363 225.581,339.774 225.177 C 344.621 224.871,346.670 224.594,346.974 224.202 C 347.208 223.901,348.435 223.359,349.700 222.999 C 352.168 222.295,352.439 221.841,351.366 220.204 C 351.017 219.671,350.836 219.066,350.963 218.860 C 351.278 218.350,350.363 218.045,347.666 217.758 C 346.420 217.625,343.780 217.093,341.800 216.575 C 339.820 216.056,337.210 215.510,336.000 215.360 C 334.790 215.211,332.900 214.737,331.800 214.308 C 328.134 212.877,326.222 212.288,323.600 211.779 C 322.170 211.501,320.280 211.081,319.400 210.846 C 318.520 210.611,317.184 210.415,316.431 210.410 C 315.679 210.404,314.766 210.131,314.402 209.802 C 314.039 209.473,312.855 209.096,311.771 208.965 C 310.687 208.833,308.810 208.399,307.600 208.000 C 306.390 207.601,304.544 207.147,303.497 206.992 C 302.142 206.790,301.334 206.399,300.691 205.635 C 299.926 204.726,299.537 204.585,298.160 204.716 C 297.265 204.802,294.180 204.405,291.305 203.836 C 288.430 203.266,285.543 202.800,284.891 202.800 C 284.238 202.800,281.926 202.285,279.752 201.655 C 277.578 201.026,274.450 200.299,272.800 200.040 C 266.592 199.068,264.572 198.660,262.614 197.983 C 261.506 197.601,259.461 197.267,258.069 197.241 C 256.676 197.216,255.230 197.030,254.854 196.829 C 254.478 196.628,252.737 196.178,250.985 195.829 C 249.233 195.481,246.810 194.924,245.600 194.591 C 244.390 194.259,241.690 193.803,239.600 193.578 C 237.510 193.353,233.677 192.635,231.082 191.984 C 228.488 191.333,225.337 190.800,224.082 190.800 C 222.827 190.800,220.540 190.533,219.000 190.207 C 217.460 189.881,215.314 189.611,214.231 189.607 C 213.017 189.603,211.999 189.361,211.573 188.975 C 211.161 188.603,209.857 188.277,208.341 188.168 C 203.560 187.825,199.800 187.245,198.313 186.623 C 197.495 186.280,195.875 185.999,194.713 185.998 C 193.551 185.996,192.084 185.726,191.454 185.398 C 190.057 184.669,189.205 184.632,189.185 185.300 M336.302 185.300 C 336.043 186.003,336.396 186.850,336.834 186.579 C 337.305 186.288,337.313 184.800,336.843 184.800 C 336.646 184.800,336.403 185.025,336.302 185.300 M195.200 188.024 C 196.410 188.225,199.560 188.661,202.200 188.994 C 212.994 190.353,220.729 191.619,225.600 192.823 C 227.250 193.231,229.590 193.675,230.800 193.809 C 233.134 194.069,237.370 194.791,243.600 195.992 C 245.690 196.395,248.468 196.849,249.774 197.000 C 251.080 197.152,252.548 197.428,253.036 197.614 C 253.525 197.800,255.427 198.154,257.262 198.402 C 259.098 198.650,261.410 199.099,262.400 199.401 C 263.390 199.702,265.550 200.222,267.200 200.555 C 268.850 200.889,271.370 201.445,272.800 201.791 C 274.230 202.136,278.820 203.029,283.000 203.774 C 290.249 205.066,294.232 205.959,300.000 207.587 C 301.430 207.990,303.950 208.699,305.600 209.161 C 307.250 209.624,309.320 210.003,310.200 210.004 C 311.080 210.004,312.314 210.273,312.941 210.600 C 313.569 210.928,316.179 211.732,318.741 212.387 C 321.304 213.043,325.202 214.097,327.404 214.730 C 329.606 215.363,332.306 216.013,333.404 216.176 C 334.502 216.338,337.080 217.098,339.134 217.865 C 341.188 218.632,343.767 219.401,344.865 219.575 C 346.776 219.877,348.436 220.897,347.896 221.437 C 347.654 221.679,343.681 222.475,336.000 223.819 C 334.130 224.147,331.520 224.672,330.200 224.986 C 328.880 225.300,325.640 225.951,323.000 226.431 C 320.360 226.912,316.917 227.723,315.350 228.233 C 313.782 228.742,311.313 229.435,309.862 229.771 C 307.298 230.366,306.140 230.749,295.574 234.499 C 292.810 235.480,289.850 236.414,288.998 236.574 C 288.146 236.734,285.728 237.679,283.624 238.674 C 281.521 239.669,278.156 241.080,276.147 241.809 C 274.137 242.538,270.435 244.139,267.919 245.367 C 265.403 246.595,263.192 247.600,263.004 247.600 C 262.816 247.600,262.366 247.869,262.002 248.198 C 261.638 248.527,259.644 249.494,257.570 250.347 C 255.497 251.200,252.720 252.540,251.400 253.325 C 246.707 256.114,242.580 258.317,241.200 258.768 C 240.430 259.020,239.080 259.761,238.200 260.414 C 236.505 261.673,236.072 261.948,231.252 264.825 C 229.571 265.828,227.026 267.478,225.597 268.492 C 224.169 269.506,222.123 270.935,221.052 271.667 C 219.981 272.400,218.541 273.471,217.852 274.046 C 217.163 274.622,215.854 275.470,214.943 275.932 C 214.032 276.394,212.682 277.464,211.943 278.309 C 211.204 279.154,209.970 280.274,209.200 280.799 C 208.430 281.324,206.755 282.709,205.477 283.877 C 204.200 285.044,202.997 286.000,202.804 286.000 C 202.323 286.000,194.472 292.621,190.791 296.131 C 189.137 297.709,186.707 299.971,185.391 301.157 C 184.076 302.343,182.451 304.080,181.779 305.017 C 181.107 305.953,180.015 307.175,179.352 307.733 C 178.689 308.291,176.241 310.874,173.912 313.474 C 169.761 318.106,169.045 318.949,164.222 324.877 C 162.915 326.485,161.608 327.945,161.318 328.122 C 161.028 328.300,160.361 329.290,159.835 330.322 C 159.309 331.355,158.389 332.650,157.789 333.200 C 157.190 333.750,155.732 335.640,154.550 337.400 C 151.709 341.631,148.226 346.311,146.811 347.800 C 145.116 349.583,140.625 357.396,139.802 359.991 C 139.491 360.974,137.927 363.474,135.632 366.660 C 134.974 367.572,134.318 368.789,134.173 369.363 C 134.029 369.938,133.751 370.506,133.556 370.627 C 133.073 370.926,133.106 368.518,133.608 366.797 C 133.833 366.029,134.270 363.499,134.579 361.176 C 134.888 358.852,135.598 355.522,136.156 353.776 C 137.098 350.830,137.599 349.059,138.809 344.400 C 139.066 343.410,139.551 342.060,139.886 341.400 C 141.115 338.982,142.074 335.714,142.586 332.200 C 142.875 330.220,143.420 327.790,143.797 326.800 C 144.174 325.810,144.730 323.606,145.032 321.902 C 145.334 320.199,145.921 318.129,146.337 317.302 C 146.752 316.476,147.221 315.088,147.379 314.219 C 147.537 313.349,148.012 311.961,148.433 311.135 C 148.855 310.308,149.200 309.262,149.200 308.811 C 149.200 307.766,150.581 302.756,151.176 301.646 C 151.424 301.182,151.816 299.767,152.048 298.501 C 152.524 295.905,153.822 291.295,155.371 286.708 C 155.945 285.008,156.701 282.218,157.051 280.508 C 157.401 278.799,157.831 277.220,158.006 277.000 C 158.182 276.780,158.799 274.800,159.378 272.600 C 159.958 270.400,160.694 268.122,161.016 267.538 C 161.337 266.954,161.606 266.234,161.614 265.938 C 161.621 265.642,161.975 264.680,162.400 263.800 C 162.825 262.920,163.177 261.750,163.182 261.200 C 163.191 260.288,163.817 258.082,165.452 253.200 C 165.783 252.210,166.378 250.230,166.775 248.800 C 167.171 247.370,167.886 245.120,168.364 243.800 C 168.842 242.480,169.424 240.770,169.658 240.000 C 169.892 239.230,170.213 238.420,170.372 238.200 C 170.531 237.980,171.130 236.270,171.702 234.400 C 174.889 223.984,176.664 218.742,177.727 216.600 C 178.383 215.280,179.156 213.390,179.446 212.400 C 180.693 208.141,183.123 201.288,183.708 200.383 C 184.057 199.842,184.712 197.907,185.163 196.081 C 185.909 193.057,188.097 188.821,189.386 187.906 C 189.932 187.519,192.468 187.570,195.200 188.024 M336.016 188.981 C 335.360 189.771,335.877 191.200,336.819 191.200 C 337.624 191.200,338.294 189.599,337.814 188.823 C 337.444 188.223,336.582 188.299,336.016 188.981 M234.098 189.099 C 233.821 189.192,233.697 189.433,233.821 189.634 C 234.111 190.103,236.000 190.114,236.000 189.647 C 236.000 189.216,234.788 188.867,234.098 189.099 M260.800 191.200 C 260.800 191.420,261.070 191.600,261.400 191.600 C 261.730 191.600,262.000 191.420,262.000 191.200 C 262.000 190.980,261.730 190.800,261.400 190.800 C 261.070 190.800,260.800 190.980,260.800 191.200 M337.867 191.867 C 337.373 192.360,337.595 193.600,338.176 193.600 C 338.934 193.600,339.262 193.027,338.959 192.236 C 338.700 191.561,338.305 191.428,337.867 191.867 M281.800 194.400 C 281.936 194.620,282.397 194.800,282.824 194.800 C 283.251 194.800,283.600 194.620,283.600 194.400 C 283.600 194.180,283.139 194.000,282.576 194.000 C 281.996 194.000,281.660 194.173,281.800 194.400 M176.630 200.667 C 176.489 201.034,176.531 201.491,176.724 201.684 C 177.171 202.131,178.159 200.981,177.811 200.418 C 177.430 199.802,176.920 199.909,176.630 200.667 M350.564 200.550 C 350.225 201.433,350.676 201.884,351.287 201.273 C 351.647 200.913,351.649 200.689,351.293 200.333 C 350.937 199.977,350.764 200.029,350.564 200.550 M348.700 201.903 C 347.771 202.110,347.814 202.907,348.802 203.802 C 349.723 204.636,349.839 204.582,350.197 203.153 C 350.477 202.037,349.977 201.620,348.700 201.903 M350.403 206.789 C 349.939 207.083,349.913 207.273,350.286 207.646 C 350.659 208.019,350.902 208.013,351.379 207.618 C 352.414 206.758,351.577 206.047,350.403 206.789 M157.266 246.855 C 157.340 247.375,157.580 247.755,157.800 247.700 C 158.390 247.552,158.286 246.295,157.666 246.089 C 157.300 245.967,157.175 246.208,157.266 246.855 M155.470 262.561 C 155.245 263.149,155.503 263.600,156.067 263.600 C 156.250 263.600,156.400 263.240,156.400 262.800 C 156.400 261.883,155.791 261.726,155.470 262.561 M151.450 263.015 C 151.313 263.372,151.474 263.730,151.834 263.868 C 152.581 264.155,153.398 263.444,153.022 262.835 C 152.629 262.200,151.723 262.304,151.450 263.015 M134.630 343.867 C 134.274 344.794,135.111 345.587,135.611 344.797 C 135.818 344.468,135.991 343.975,135.994 343.700 C 136.003 342.961,134.927 343.093,134.630 343.867 " stroke="none" fill="#191a19" fill-rule="evenodd"></path></g></svg>